<svg fill="none" height="1495" viewBox="0 0 345 1495" width="345" xmlns="http://www.w3.org/2000/svg" xmlns:xlink="http://www.w3.org/1999/xlink"><linearGradient id="a" gradientUnits="userSpaceOnUse" x1="374.697" x2="-33.9993" y1="685.5" y2="685.5"><stop offset="0" stop-color="#ff5cb2"/><stop offset="1" stop-color="#c625ff"/></linearGradient><linearGradient id="b" gradientUnits="userSpaceOnUse" x1="166.092" x2="158.429" y1="1286.8" y2="1286.8"><stop offset="0" stop-color="#4742ff"/><stop offset="1" stop-color="#706cfb"/></linearGradient><path d="m155.023 377.017c3.762 0 6.811 3.207 6.811 7.163 0 3.957-3.049 7.164-6.811 7.164h-38.315c-3.762 0-6.812-3.207-6.812-7.164 0-3.956 3.05-7.163 6.812-7.163z" fill="#d1d0ff"/><path d="m155.023 402.089c3.762 0 6.811 3.208 6.811 7.164s-3.049 7.164-6.811 7.164h-50.236c-3.762 0-6.8113-3.208-6.8113-7.164s3.0493-7.164 6.8113-7.164z" fill="#d1d0ff"/><path d="m155.023 427.162c3.762 0 6.811 3.207 6.811 7.164 0 3.956-3.049 7.163-6.811 7.163h-57.8988c-3.762 0-6.8116-3.207-6.8116-7.163 0-3.957 3.0496-7.164 6.8116-7.164z" fill="#d1d0ff"/><path d="m155.023 452.235c3.762 0 6.811 3.207 6.811 7.163 0 3.957-3.049 7.164-6.811 7.164h-71.522c-3.762 0-6.8116-3.207-6.8116-7.164 0-3.956 3.0496-7.163 6.8116-7.163z" fill="#d1d0ff"/><path d="m155.023 477.307c3.762 0 6.811 3.208 6.811 7.164s-3.049 7.164-6.811 7.164h-81.7394c-3.762 0-6.8116-3.208-6.8116-7.164s3.0496-7.164 6.8116-7.164z" fill="#d1d0ff"/><path d="m155.023 502.38c3.762 0 6.811 3.207 6.811 7.164 0 3.956-3.049 7.163-6.811 7.163h-94.5112c-3.762 0-6.8116-3.207-6.8116-7.163 0-3.957 3.0496-7.164 6.8116-7.164z" fill="#d1d0ff"/><path d="m155.023 527.453c3.762 0 6.811 3.207 6.811 7.163 0 3.957-3.049 7.164-6.811 7.164h-104.7286c-3.762 0-6.8116-3.207-6.8116-7.164 0-3.956 3.0496-7.163 6.8116-7.163z" fill="#d1d0ff"/><path d="m155.023 552.525c3.762 0 6.811 3.208 6.811 7.164s-3.049 7.164-6.811 7.164h-114.0946c-3.7619 0-6.8116-3.208-6.8116-7.164s3.0497-7.164 6.8116-7.164z" fill="#d1d0ff"/><path d="m155.023 577.598c3.762 0 6.811 3.207 6.811 7.164 0 3.956-3.049 7.163-6.811 7.163h-126.0149c-3.7619 0-6.8116-3.207-6.8116-7.163 0-3.957 3.0497-7.164 6.8116-7.164z" fill="#d1d0ff"/><path d="m155.023 602.671c3.762 0 6.811 3.207 6.811 7.163 0 3.957-3.049 7.164-6.811 7.164h-134.5294c-3.7619 0-6.8116-3.207-6.8116-7.164 0-3.956 3.0497-7.163 6.8116-7.163z" fill="#d1d0ff"/><path d="m155.023 627.743c3.762 0 6.811 3.208 6.811 7.164s-3.049 7.164-6.811 7.164h-143.8953c-3.76201 0-6.81166-3.208-6.81166-7.164s3.04965-7.164 6.81166-7.164z" fill="#d1d0ff"/><path d="m155.023 652.816c3.762 0 6.811 3.207 6.811 7.164 0 3.956-3.049 7.163-6.811 7.163h-150.70697c-3.761959 0-6.81161-3.207-6.81161-7.163 0-3.957 3.049652-7.164 6.81161-7.164z" fill="#d1d0ff"/><path d="m155.023 677.889c3.762 0 6.811 3.207 6.811 7.163 0 3.957-3.049 7.164-6.811 7.164h-154.9642304c-3.7619296 0-6.8116196-3.207-6.8116196-7.164.00001-3.956 3.04969-7.163 6.8116203-7.163z" fill="#d1d0ff"/><path d="m155.023 702.961c3.762 0 6.811 3.208 6.811 7.164s-3.049 7.164-6.811 7.164l-160.92438-.001c-3.76196 0-6.81162-3.207-6.81162-7.163s3.04966-7.164 6.81163-7.164z" fill="#d1d0ff"/><path d="m155.023 728.034c3.762 0 6.811 3.207 6.811 7.164 0 3.956-3.049 7.163-6.811 7.163h-165.1816c-3.762 0-6.8117-3.207-6.8117-7.163 0-3.957 3.0497-7.164 6.8117-7.164z" fill="#d1d0ff"/><path d="m155.023 753.107c3.762 0 6.811 3.207 6.811 7.163 0 3.957-3.049 7.164-6.811 7.164h-165.1816c-3.762 0-6.8117-3.207-6.8117-7.164 0-3.956 3.0497-7.163 6.8117-7.163z" fill="#d1d0ff"/><path d="m155.023 778.179c3.762 0 6.811 3.208 6.811 7.164s-3.049 7.164-6.811 7.164h-160.92438c-3.76196 0-6.81162-3.208-6.81162-7.164s3.04966-7.164 6.81162-7.164z" fill="#d1d0ff"/><path d="m155.023 803.252c3.762 0 6.811 3.207 6.811 7.164 0 3.956-3.049 7.163-6.811 7.163h-157.51859c-3.76193 0-6.81161-3.207-6.81161-7.163 0-3.957 3.04968-7.164 6.81161-7.164z" fill="#d1d0ff"/><path d="m155.023 828.325c3.762 0 6.811 3.207 6.811 7.163 0 3.957-3.049 7.164-6.811 7.164h-154.9642369c-3.7619331 0-6.8116131-3.207-6.8116131-7.164 0-3.956 3.04968-7.163 6.8116137-7.163z" fill="#d1d0ff"/><path d="m155.023 853.397c3.762 0 6.811 3.207 6.811 7.164 0 3.956-3.049 7.163-6.811 7.163h-143.8954c-3.76192 0-6.81157-3.207-6.81157-7.163 0-3.957 3.04965-7.164 6.81157-7.164z" fill="#d1d0ff"/><path d="m155.023 878.47c3.762 0 6.811 3.207 6.811 7.164 0 3.956-3.049 7.163-6.811 7.163h-129.4207c-3.762 0-6.8116-3.207-6.8116-7.163 0-3.957 3.0496-7.164 6.8116-7.164z" fill="#d1d0ff"/><path d="m155.023 903.543c3.762 0 6.811 3.207 6.811 7.163 0 3.957-3.049 7.164-6.811 7.164h-116.6489c-3.762 0-6.8116-3.207-6.8116-7.164 0-3.956 3.0496-7.163 6.8116-7.163z" fill="#d1d0ff"/><path d="m155.023 928.615c3.762 0 6.811 3.208 6.811 7.164s-3.049 7.163-6.811 7.163h-97.917c-3.762 0-6.8116-3.207-6.8116-7.163 0-3.957 3.0496-7.164 6.8116-7.164z" fill="#d1d0ff"/><path d="m155.023 953.688c3.762 0 6.811 3.207 6.811 7.164 0 3.956-3.049 7.163-6.811 7.163h-81.7394c-3.762 0-6.8117-3.207-6.8117-7.163 0-3.957 3.0497-7.164 6.8117-7.164z" fill="#d1d0ff"/><path d="m155.023 978.76c3.762 0 6.811 3.208 6.811 7.164s-3.049 7.164-6.811 7.164h-67.2648c-3.7619 0-6.8116-3.208-6.8116-7.164s3.0497-7.164 6.8116-7.164z" fill="#d1d0ff"/><path d="m155.023 1003.83c3.762 0 6.811 3.21 6.811 7.17 0 3.95-3.049 7.16-6.811 7.16h-51.087c-3.762 0-6.8118-3.21-6.8118-7.16 0-3.96 3.0498-7.17 6.8118-7.17z" fill="#d1d0ff"/><path d="m155.023 1028.91c3.762 0 6.811 3.2 6.811 7.16s-3.049 7.16-6.811 7.16h-38.315c-3.762 0-6.812-3.2-6.812-7.16s3.05-7.16 6.812-7.16z" fill="#d1d0ff"/><path d="m155.023 1053.98c3.762 0 6.811 3.21 6.811 7.16 0 3.96-3.049 7.17-6.811 7.17h-29.801c-3.762 0-6.812-3.21-6.812-7.17 0-3.95 3.05-7.16 6.812-7.16z" fill="#d1d0ff"/><path d="m155.023 1079.05c3.762 0 6.811 3.21 6.811 7.16 0 3.96-3.049 7.17-6.811 7.17h-29.801c-3.762 0-6.812-3.21-6.812-7.17 0-3.95 3.05-7.16 6.812-7.16z" fill="#d1d0ff"/><path d="m155.023 1104.12c3.762 0 6.811 3.21 6.811 7.17 0 3.95-3.049 7.16-6.811 7.16h-26.395c-3.762 0-6.812-3.21-6.812-7.16 0-3.96 3.05-7.17 6.812-7.17z" fill="#d1d0ff"/><path d="m155.023 1129.2c3.762 0 6.811 3.2 6.811 7.16s-3.049 7.16-6.811 7.16h-26.395c-3.762 0-6.812-3.2-6.812-7.16s3.05-7.16 6.812-7.16z" fill="#d1d0ff"/><path d="m155.023 1154.27c3.762 0 6.811 3.21 6.811 7.16 0 3.96-3.049 7.17-6.811 7.17h-29.801c-3.762 0-6.812-3.21-6.812-7.17 0-3.95 3.05-7.16 6.812-7.16z" fill="#d1d0ff"/><path d="m155.023 1179.34c3.762 0 6.811 3.21 6.811 7.17 0 3.95-3.049 7.16-6.811 7.16h-35.761c-3.762 0-6.812-3.21-6.812-7.16 0-3.96 3.05-7.17 6.812-7.17z" fill="#d1d0ff"/><path d="m155.023 1204.41c3.762 0 6.811 3.21 6.811 7.17 0 3.95-3.049 7.16-6.811 7.16h-45.127c-3.762 0-6.812-3.21-6.812-7.16 0-3.96 3.05-7.17 6.812-7.17z" fill="#d1d0ff"/><path d="m155.023 1229.49c3.762 0 6.811 3.2 6.811 7.16s-3.049 7.16-6.811 7.16h-47.681c-3.762 0-6.812-3.2-6.812-7.16s3.05-7.16 6.812-7.16z" fill="#d1d0ff"/><path d="m157.577 1254.56c3.762 0 6.812 3.21 6.812 7.16 0 3.96-3.05 7.17-6.812 7.17h-52.79c-3.762 0-6.8114-3.21-6.8114-7.17 0-3.95 3.0494-7.16 6.8114-7.16z" fill="#d1d0ff"/><path d="m159.28 1279.63c3.762 0 6.812 3.21 6.812 7.17 0 3.95-3.05 7.16-6.812 7.16h-51.938c-3.762 0-6.812-3.21-6.812-7.16 0-3.96 3.05-7.17 6.812-7.17z" fill="#d1d0ff"/><path d="m158.429 1304.71c3.762 0 6.811 3.2 6.811 7.16s-3.049 7.16-6.811 7.16h-45.127c-3.762 0-6.812-3.2-6.812-7.16s3.05-7.16 6.812-7.16z" fill="#d1d0ff"/><path d="m158.429 1329.78c3.762 0 6.811 3.21 6.811 7.16 0 3.96-3.049 7.16-6.811 7.16h-40.019c-3.762 0-6.811-3.2-6.811-7.16 0-3.95 3.049-7.16 6.811-7.16z" fill="#d1d0ff"/><path d="m158.429 1354.85c3.762 0 6.811 3.21 6.811 7.16 0 3.96-3.049 7.17-6.811 7.17h-35.761c-3.762 0-6.812-3.21-6.812-7.17 0-3.95 3.05-7.16 6.812-7.16z" fill="#d1d0ff"/><path d="m158.429 1379.92c3.762 0 6.811 3.21 6.811 7.17 0 3.95-3.049 7.16-6.811 7.16h-24.692c-3.762 0-6.812-3.21-6.812-7.16 0-3.96 3.05-7.17 6.812-7.17z" fill="#d1d0ff"/><path d="m158.429 1405c3.762 0 6.811 3.2 6.811 7.16s-3.049 7.16-6.811 7.16h-12.772c-3.762 0-6.812-3.2-6.812-7.16s3.05-7.16 6.812-7.16z" fill="#d1d0ff"/><path d="m158.429 1430.07c3.762 0 6.811 3.21 6.811 7.16 0 3.96-3.049 7.17-6.811 7.17s-6.812-3.21-6.812-7.17c0-3.95 3.05-7.16 6.812-7.16z" fill="#d1d0ff"/><path d="m245.277.926813c3.762 0 6.811 3.207257 6.811 7.163607 0 3.95638-3.049 7.16358-6.811 7.16358h-63.859c-3.762 0-6.812-3.2072-6.812-7.16359 0-3.95634 3.05-7.1636 6.812-7.1636z" fill="#f1c9ff"/><path d="m267.414 25.9995c3.762 0 6.812 3.2072 6.812 7.1636 0 3.9563-3.05 7.1636-6.812 7.1636h-85.996c-3.762 0-6.812-3.2073-6.812-7.1636 0-3.9564 3.05-7.1636 6.812-7.1636z" fill="#f1c9ff"/><path d="m287.849 51.0721c3.762 0 6.812 3.2073 6.812 7.1636 0 3.9564-3.05 7.1637-6.812 7.1637h-106.431c-3.762 0-6.812-3.2073-6.812-7.1637 0-3.9563 3.05-7.1636 6.812-7.1636z" fill="#f1c9ff"/><path d="m306.581 76.1448c3.762 0 6.812 3.2072 6.812 7.1636s-3.05 7.1636-6.812 7.1636h-125.163c-3.762 0-6.812-3.2072-6.812-7.1636s3.05-7.1636 6.812-7.1636z" fill="#f1c9ff"/><path d="m318.501 101.217c3.762 0 6.812 3.208 6.812 7.164s-3.05 7.164-6.812 7.164h-137.083c-3.762 0-6.812-3.208-6.812-7.164s3.05-7.164 6.812-7.164z" fill="#f1c9ff"/><path d="m329.57 126.29c3.762 0 6.812 3.207 6.812 7.164 0 3.956-3.05 7.163-6.812 7.163h-148.152c-3.762 0-6.812-3.207-6.812-7.163 0-3.957 3.05-7.164 6.812-7.164h74.076z" fill="#f1c9ff"/><path d="m337.233 151.363c3.762 0 6.812 3.207 6.812 7.163 0 3.957-3.05 7.164-6.812 7.164h-155.815c-3.762 0-6.812-3.207-6.812-7.164 0-3.956 3.05-7.163 6.812-7.163z" fill="#f1c9ff"/><path d="m337.233 176.435c3.762 0 6.812 3.208 6.812 7.164s-3.05 7.164-6.812 7.164h-155.815c-3.762 0-6.812-3.208-6.812-7.164s3.05-7.164 6.812-7.164z" fill="#f1c9ff"/><path d="m337.233 201.508c3.762 0 6.812 3.207 6.812 7.164 0 3.956-3.05 7.163-6.812 7.163h-155.815c-3.762 0-6.812-3.207-6.812-7.163 0-3.957 3.05-7.164 6.812-7.164z" fill="#f1c9ff"/><path d="m337.233 226.581c3.762 0 6.812 3.207 6.812 7.163 0 3.957-3.05 7.164-6.812 7.164h-155.815c-3.762 0-6.812-3.207-6.812-7.164 0-3.956 3.05-7.163 6.812-7.163z" fill="#f1c9ff"/><path d="m332.976 251.653c3.762 0 6.812 3.208 6.812 7.164s-3.05 7.164-6.812 7.164h-151.558c-3.762 0-6.812-3.208-6.812-7.164s3.05-7.164 6.812-7.164z" fill="#f1c9ff"/><path d="m327.016 276.726c3.762 0 6.812 3.207 6.812 7.164 0 3.956-3.05 7.163-6.812 7.163h-145.598c-3.762 0-6.812-3.207-6.812-7.163 0-3.957 3.05-7.164 6.812-7.164z" fill="#f1c9ff"/><path d="m320.204 301.799c3.762 0 6.812 3.207 6.812 7.163 0 3.957-3.05 7.164-6.812 7.164h-138.786c-3.762 0-6.812-3.207-6.812-7.164 0-3.956 3.05-7.163 6.812-7.163z" fill="#f1c9ff"/><path d="m315.947 326.871c3.762 0 6.812 3.208 6.812 7.164s-3.05 7.164-6.812 7.164h-134.529c-3.762 0-6.812-3.208-6.812-7.164s3.05-7.164 6.812-7.164z" fill="#f1c9ff"/><path d="m309.987 351.944c3.762 0 6.812 3.207 6.812 7.164 0 3.956-3.05 7.163-6.812 7.163h-128.569c-3.762 0-6.812-3.207-6.812-7.163 0-3.957 3.05-7.164 6.812-7.164z" fill="#f1c9ff"/><path d="m304.027 377.017c3.762 0 6.811 3.207 6.811 7.163 0 3.957-3.049 7.164-6.811 7.164h-122.609c-3.762 0-6.812-3.207-6.812-7.164 0-3.956 3.05-7.163 6.812-7.163z" fill="#f1c9ff"/><path d="m298.067 402.089c3.762 0 6.811 3.208 6.811 7.164s-3.049 7.164-6.811 7.164h-116.649c-3.762 0-6.812-3.208-6.812-7.164s3.05-7.164 6.812-7.164z" fill="#f1c9ff"/><path d="m287.849 427.162c3.762 0 6.812 3.207 6.812 7.164 0 3.956-3.05 7.163-6.812 7.163h-106.431c-3.762 0-6.812-3.207-6.812-7.163 0-3.957 3.05-7.164 6.812-7.164z" fill="#f1c9ff"/><path d="m280.186 452.235c3.762 0 6.812 3.207 6.812 7.163 0 3.957-3.05 7.164-6.812 7.164h-98.768c-3.762 0-6.812-3.207-6.812-7.164 0-3.956 3.05-7.163 6.812-7.163z" fill="#f1c9ff"/><path d="m274.226 477.307c3.762 0 6.812 3.208 6.812 7.164s-3.05 7.164-6.812 7.164h-92.808c-3.762 0-6.812-3.208-6.812-7.164s3.05-7.164 6.812-7.164z" fill="#f1c9ff"/><path d="m271.672 502.38c3.762 0 6.811 3.207 6.811 7.164 0 3.956-3.049 7.163-6.811 7.163h-90.254c-3.762 0-6.812-3.207-6.812-7.163 0-3.957 3.05-7.164 6.812-7.164z" fill="#f1c9ff"/><path d="m269.969 527.453c3.762 0 6.811 3.207 6.811 7.163 0 3.957-3.049 7.164-6.811 7.164h-88.551c-3.762 0-6.812-3.207-6.812-7.164 0-3.956 3.05-7.163 6.812-7.163z" fill="#f1c9ff"/><path d="m269.969 552.525c3.762 0 6.811 3.208 6.811 7.164s-3.049 7.164-6.811 7.164h-88.551c-3.762 0-6.812-3.208-6.812-7.164s3.05-7.164 6.812-7.164z" fill="#f1c9ff"/><path d="m271.672 577.598c3.762 0 6.811 3.207 6.811 7.164 0 3.956-3.049 7.163-6.811 7.163h-90.254c-3.762 0-6.812-3.207-6.812-7.163 0-3.957 3.05-7.164 6.812-7.164z" fill="#f1c9ff"/><path d="m276.78 602.671c3.762 0 6.812 3.207 6.812 7.163 0 3.957-3.05 7.164-6.812 7.164h-95.362c-3.762 0-6.812-3.207-6.812-7.164 0-3.956 3.05-7.163 6.812-7.163z" fill="#f1c9ff"/><path d="m274.226 627.743c3.762 0 6.812 3.208 6.812 7.164s-3.05 7.164-6.812 7.164h-92.808c-3.762 0-6.812-3.208-6.812-7.164s3.05-7.164 6.812-7.164z" fill="#f1c9ff"/><path d="m267.414 652.816c3.762 0 6.812 3.207 6.812 7.164 0 3.956-3.05 7.163-6.812 7.163h-85.996c-3.762 0-6.812-3.207-6.812-7.163 0-3.957 3.05-7.164 6.812-7.164z" fill="#f1c9ff"/><path d="m256.346 677.889c3.761 0 6.811 3.207 6.811 7.163 0 3.957-3.05 7.164-6.811 7.164h-74.928c-3.762 0-6.812-3.207-6.812-7.164 0-3.956 3.05-7.163 6.812-7.163z" fill="#f1c9ff"/><path d="m248.682 702.961c3.762 0 6.812 3.208 6.812 7.164s-3.05 7.164-6.812 7.164h-67.264c-3.762 0-6.812-3.208-6.812-7.164s3.05-7.164 6.812-7.164z" fill="#f1c9ff"/><path d="m239.317 728.034c3.761 0 6.811 3.207 6.811 7.164 0 3.956-3.05 7.163-6.811 7.163h-57.899c-3.762 0-6.812-3.207-6.812-7.163 0-3.957 3.05-7.164 6.812-7.164z" fill="#f1c9ff"/><path d="m227.396 753.107c3.762 0 6.812 3.207 6.812 7.163 0 3.957-3.05 7.164-6.812 7.164h-45.978c-3.762 0-6.812-3.207-6.812-7.164 0-3.956 3.05-7.163 6.812-7.163z" fill="#f1c9ff"/><path d="m217.179 778.179c3.762 0 6.811 3.208 6.811 7.164s-3.049 7.164-6.811 7.164h-35.761c-3.762 0-6.812-3.208-6.812-7.164s3.05-7.164 6.812-7.164z" fill="#f1c9ff"/><path d="m211.219 803.252c3.762 0 6.811 3.207 6.811 7.164 0 3.956-3.049 7.163-6.811 7.163h-29.801c-3.762 0-6.812-3.207-6.812-7.163 0-3.957 3.05-7.164 6.812-7.164z" fill="#f1c9ff"/><path d="m244.425 1279.63c3.762 0 6.812 3.21 6.812 7.17 0 3.95-3.05 7.16-6.812 7.16h-63.007c-3.762 0-6.812-3.21-6.812-7.16 0-3.96 3.05-7.17 6.812-7.17z" fill="#f1c9ff"/><path d="m251.237 1304.71c3.762 0 6.811 3.2 6.811 7.16s-3.049 7.16-6.811 7.16h-69.819c-3.762 0-6.812-3.2-6.812-7.16s3.05-7.16 6.812-7.16z" fill="#f1c9ff"/><path d="m260.603 1329.78c3.762 0 6.811 3.21 6.811 7.16 0 3.96-3.049 7.16-6.811 7.16h-79.185c-3.762 0-6.812-3.2-6.812-7.16 0-3.95 3.05-7.16 6.812-7.16z" fill="#f1c9ff"/><path d="m274.226 1354.85c3.762 0 6.812 3.21 6.812 7.16 0 3.96-3.05 7.17-6.812 7.17h-92.808c-3.762 0-6.812-3.21-6.812-7.17 0-3.95 3.05-7.16 6.812-7.16z" fill="#f1c9ff"/><path d="m281.038 1379.92c3.762 0 6.811 3.21 6.811 7.17 0 3.95-3.049 7.16-6.811 7.16h-99.62c-3.762 0-6.812-3.21-6.812-7.16 0-3.96 3.05-7.17 6.812-7.17z" fill="#f1c9ff"/><path d="m271.672 1405c3.762 0 6.811 3.2 6.811 7.16s-3.049 7.16-6.811 7.16h-90.254c-3.762 0-6.812-3.2-6.812-7.16s3.05-7.16 6.812-7.16z" fill="#f1c9ff"/><path d="m256.346 1430.07c3.761 0 6.811 3.21 6.811 7.16 0 3.96-3.05 7.17-6.811 7.17h-74.928c-3.762 0-6.812-3.21-6.812-7.17 0-3.95 3.05-7.16 6.812-7.16z" fill="#f1c9ff"/><path d="m244.425 1455.14c3.762 0 6.812 3.21 6.812 7.16 0 3.96-3.05 7.17-6.812 7.17h-63.007c-3.762 0-6.812-3.21-6.812-7.17 0-3.95 3.05-7.16 6.812-7.16z" fill="#f1c9ff"/><g fill="url(#a)"><path d="m220.585.926812c3.762 0 6.811 3.207258 6.811 7.163608 0 3.95638-3.049 7.16358-6.811 7.16358h-39.167c-3.762 0-6.812-3.2072-6.812-7.16359 0-3.95634 3.05-7.1636 6.812-7.1636z"/><path d="m241.871 25.9995c3.762 0 6.812 3.2072 6.812 7.1636 0 3.9563-3.05 7.1636-6.812 7.1636h-60.453c-3.762 0-6.812-3.2073-6.812-7.1636 0-3.9564 3.05-7.1636 6.812-7.1636z"/><path d="m264.86 51.0721c3.762 0 6.812 3.2073 6.812 7.1636 0 3.9564-3.05 7.1637-6.812 7.1637h-83.442c-3.762 0-6.812-3.2073-6.812-7.1637 0-3.9563 3.05-7.1636 6.812-7.1636z"/><path d="m280.186 76.1448c3.762 0 6.812 3.2072 6.812 7.1636s-3.05 7.1636-6.812 7.1636h-98.768c-3.762 0-6.812-3.2072-6.812-7.1636s3.05-7.1636 6.812-7.1636z"/><path d="m293.809 101.217c3.762 0 6.812 3.208 6.812 7.164s-3.05 7.164-6.812 7.164h-112.391c-3.762 0-6.812-3.208-6.812-7.164s3.05-7.164 6.812-7.164z"/><path d="m298.067 126.29c3.762 0 6.811 3.207 6.811 7.164 0 3.956-3.049 7.163-6.811 7.163h-116.649c-3.762 0-6.812-3.207-6.812-7.163 0-3.957 3.05-7.164 6.812-7.164z"/><path d="m298.067 151.363c3.762 0 6.811 3.207 6.811 7.163 0 3.957-3.049 7.164-6.811 7.164h-116.649c-3.762 0-6.812-3.207-6.812-7.164 0-3.956 3.05-7.163 6.812-7.163z"/><path d="m298.067 176.435c3.762 0 6.811 3.208 6.811 7.164s-3.049 7.164-6.811 7.164h-116.649c-3.762 0-6.812-3.208-6.812-7.164s3.05-7.164 6.812-7.164z"/><path d="m298.067 201.508c3.762 0 6.811 3.207 6.811 7.164 0 3.956-3.049 7.163-6.811 7.163h-116.649c-3.762 0-6.812-3.207-6.812-7.163 0-3.957 3.05-7.164 6.812-7.164z"/><path d="m293.809 226.581c3.762 0 6.812 3.207 6.812 7.163 0 3.957-3.05 7.164-6.812 7.164h-112.391c-3.762 0-6.812-3.207-6.812-7.164 0-3.956 3.05-7.163 6.812-7.163z"/><path d="m285.295 251.653c3.762 0 6.811 3.208 6.811 7.164s-3.049 7.164-6.811 7.164h-103.877c-3.762 0-6.812-3.208-6.812-7.164s3.05-7.164 6.812-7.164z"/><path d="m276.78 276.726c3.762 0 6.812 3.207 6.812 7.164 0 3.956-3.05 7.163-6.812 7.163h-95.362c-3.762 0-6.812-3.207-6.812-7.163 0-3.957 3.05-7.164 6.812-7.164z"/><path d="m264.86 301.799c3.762 0 6.812 3.207 6.812 7.163 0 3.957-3.05 7.164-6.812 7.164h-83.442c-3.762 0-6.812-3.207-6.812-7.164 0-3.956 3.05-7.163 6.812-7.163z"/><path d="m260.603 326.871c3.762 0 6.811 3.208 6.811 7.164s-3.049 7.164-6.811 7.164h-79.185c-3.762 0-6.812-3.208-6.812-7.164s3.05-7.164 6.812-7.164z"/><path d="m254.643 351.944c3.762 0 6.811 3.207 6.811 7.164 0 3.956-3.049 7.163-6.811 7.163h-73.225c-3.762 0-6.812-3.207-6.812-7.163 0-3.957 3.05-7.164 6.812-7.164z"/><path d="m251.237 377.017c3.762 0 6.811 3.207 6.811 7.163 0 3.957-3.049 7.164-6.811 7.164h-69.819c-3.762 0-6.812-3.207-6.812-7.164 0-3.956 3.05-7.163 6.812-7.163z"/><path d="m251.237 402.089c3.762 0 6.811 3.208 6.811 7.164s-3.049 7.164-6.811 7.164h-69.819c-3.762 0-6.812-3.208-6.812-7.164s3.05-7.164 6.812-7.164z"/><path d="m251.237 427.162c3.762 0 6.811 3.207 6.811 7.164 0 3.956-3.049 7.163-6.811 7.163h-69.819c-3.762 0-6.812-3.207-6.812-7.163 0-3.957 3.05-7.164 6.812-7.164z"/><path d="m248.682 452.235c3.762 0 6.812 3.207 6.812 7.163 0 3.957-3.05 7.164-6.812 7.164h-67.264c-3.762 0-6.812-3.207-6.812-7.164 0-3.956 3.05-7.163 6.812-7.163z"/><path d="m244.425 477.307c3.762 0 6.812 3.208 6.812 7.164s-3.05 7.164-6.812 7.164h-63.007c-3.762 0-6.812-3.208-6.812-7.164s3.05-7.164 6.812-7.164z"/><path d="m235.059 502.38c3.762 0 6.812 3.207 6.812 7.164 0 3.956-3.05 7.163-6.812 7.163h-53.641c-3.762 0-6.812-3.207-6.812-7.163 0-3.957 3.05-7.164 6.812-7.164z"/><path d="m220.585 527.453c3.762 0 6.811 3.207 6.811 7.163 0 3.957-3.049 7.164-6.811 7.164h-39.167c-3.762 0-6.812-3.207-6.812-7.164 0-3.956 3.05-7.163 6.812-7.163z"/><path d="m211.219 552.525c3.762 0 6.811 3.208 6.811 7.164s-3.049 7.164-6.811 7.164h-29.801c-3.762 0-6.812-3.208-6.812-7.164s3.05-7.164 6.812-7.164z"/><path d="m199.298 577.598c3.762 0 6.812 3.207 6.812 7.164 0 3.956-3.05 7.163-6.812 7.163h-17.88c-3.762 0-6.812-3.207-6.812-7.163 0-3.957 3.05-7.164 6.812-7.164z"/><path d="m187.378 602.671c3.762 0 6.812 3.207 6.812 7.163 0 3.957-3.05 7.164-6.812 7.164h-5.96c-3.762 0-6.812-3.207-6.812-7.164 0-3.956 3.05-7.163 6.812-7.163z"/><path d="m183.972 627.743c3.762 0 6.812 3.208 6.812 7.164s-3.05 7.164-6.812 7.164h-2.554c-3.762 0-6.812-3.208-6.812-7.164s3.05-7.164 6.812-7.164z"/><path d="m183.972 652.816c3.762 0 6.812 3.207 6.812 7.164 0 3.956-3.05 7.163-6.812 7.163h-2.554c-3.762 0-6.812-3.207-6.812-7.163 0-3.957 3.05-7.164 6.812-7.164z"/><path d="m183.972 677.889c3.762 0 6.812 3.207 6.812 7.163 0 3.957-3.05 7.164-6.812 7.164h-2.554c-3.762 0-6.812-3.207-6.812-7.164 0-3.956 3.05-7.163 6.812-7.163z"/><path d="m183.972 702.961c3.762 0 6.812 3.208 6.812 7.164s-3.05 7.164-6.812 7.164h-2.554c-3.762 0-6.812-3.208-6.812-7.164s3.05-7.164 6.812-7.164z"/><path d="m191.635 728.034c3.762 0 6.812 3.207 6.812 7.164 0 3.956-3.05 7.163-6.812 7.163h-10.217c-3.762 0-6.812-3.207-6.812-7.163 0-3.957 3.05-7.164 6.812-7.164z"/><path d="m183.972 753.107c3.762 0 6.812 3.207 6.812 7.163 0 3.957-3.05 7.164-6.812 7.164h-2.554c-3.762 0-6.812-3.207-6.812-7.164 0-3.956 3.05-7.163 6.812-7.163z"/><path d="m187.378 778.179c3.762 0 6.812 3.208 6.812 7.164s-3.05 7.164-6.812 7.164h-5.96c-3.762 0-6.812-3.208-6.812-7.164s3.05-7.164 6.812-7.164z"/><path d="m199.298 803.252c3.762 0 6.812 3.207 6.812 7.164 0 3.956-3.05 7.163-6.812 7.163h-17.88c-3.762 0-6.812-3.207-6.812-7.163 0-3.957 3.05-7.164 6.812-7.164z"/><path d="m201.853 828.325c3.762 0 6.811 3.207 6.811 7.163 0 3.957-3.049 7.164-6.811 7.164h-20.435c-3.762 0-6.812-3.207-6.812-7.164 0-3.956 3.05-7.163 6.812-7.163z"/><path d="m201.853 853.397c3.762 0 6.811 3.207 6.811 7.164 0 3.956-3.049 7.163-6.811 7.163h-20.435c-3.762 0-6.812-3.207-6.812-7.163 0-3.957 3.05-7.164 6.812-7.164z"/><path d="m195.893 878.47c3.761 0 6.811 3.207 6.811 7.164 0 3.956-3.05 7.163-6.811 7.163h-14.475c-3.762 0-6.812-3.207-6.812-7.163 0-3.957 3.05-7.164 6.812-7.164z"/><path d="m191.635 903.543c3.762 0 6.812 3.207 6.812 7.163 0 3.957-3.05 7.164-6.812 7.164h-10.217c-3.762 0-6.812-3.207-6.812-7.164 0-3.956 3.05-7.163 6.812-7.163z"/><path d="m195.892 928.615c3.762 0 6.812 3.208 6.812 7.164s-3.05 7.163-6.812 7.163h-14.474c-3.762 0-6.812-3.207-6.812-7.163s3.05-7.164 6.812-7.164z"/><path d="m217.179 953.688c3.762 0 6.811 3.207 6.811 7.164 0 3.956-3.049 7.163-6.811 7.163h-35.761c-3.762 0-6.812-3.207-6.812-7.163 0-3.957 3.05-7.164 6.812-7.164z"/><path d="m236.762 978.76c3.762 0 6.812 3.208 6.812 7.164s-3.05 7.164-6.812 7.164h-55.344c-3.762 0-6.812-3.208-6.812-7.164s3.05-7.164 6.812-7.164z"/><path d="m248.682 1003.83c3.762 0 6.812 3.21 6.812 7.17 0 3.95-3.05 7.16-6.812 7.16h-67.264c-3.762 0-6.812-3.21-6.812-7.16 0-3.96 3.05-7.17 6.812-7.17z"/><path d="m258.048 1028.91c3.762 0 6.812 3.2 6.812 7.16s-3.05 7.16-6.812 7.16h-76.63c-3.762 0-6.812-3.2-6.812-7.16s3.05-7.16 6.812-7.16z"/><path d="m264.86 1053.98c3.762 0 6.812 3.21 6.812 7.16 0 3.96-3.05 7.17-6.812 7.17h-83.442c-3.762 0-6.812-3.21-6.812-7.17 0-3.95 3.05-7.16 6.812-7.16z"/><path d="m274.226 1079.05c3.762 0 6.812 3.21 6.812 7.16 0 3.96-3.05 7.17-6.812 7.17h-92.808c-3.762 0-6.812-3.21-6.812-7.17 0-3.95 3.05-7.16 6.812-7.16z"/><path d="m276.78 1104.12c3.762 0 6.812 3.21 6.812 7.17 0 3.95-3.05 7.16-6.812 7.16h-95.362c-3.762 0-6.812-3.21-6.812-7.16 0-3.96 3.05-7.17 6.812-7.17z"/><path d="m271.672 1129.2c3.762 0 6.811 3.2 6.811 7.16s-3.049 7.16-6.811 7.16h-90.254c-3.762 0-6.812-3.2-6.812-7.16s3.05-7.16 6.812-7.16z"/><path d="m264.86 1154.27c3.762 0 6.812 3.21 6.812 7.16 0 3.96-3.05 7.17-6.812 7.17h-83.442c-3.762 0-6.812-3.21-6.812-7.17 0-3.95 3.05-7.16 6.812-7.16z"/><path d="m251.237 1179.34c3.762 0 6.811 3.21 6.811 7.17 0 3.95-3.049 7.16-6.811 7.16h-69.819c-3.762 0-6.812-3.21-6.812-7.16 0-3.96 3.05-7.17 6.812-7.17z"/><path d="m244.425 1204.41c3.762 0 6.812 3.21 6.812 7.17 0 3.95-3.05 7.16-6.812 7.16h-63.007c-3.762 0-6.812-3.21-6.812-7.16 0-3.96 3.05-7.17 6.812-7.17z"/><path d="m244.425 1229.49c3.762 0 6.812 3.2 6.812 7.16s-3.05 7.16-6.812 7.16h-63.007c-3.762 0-6.812-3.2-6.812-7.16s3.05-7.16 6.812-7.16z"/><path d="m238.465 1254.56c3.762 0 6.812 3.21 6.812 7.16 0 3.96-3.05 7.17-6.812 7.17h-57.047c-3.762 0-6.812-3.21-6.812-7.17 0-3.95 3.05-7.16 6.812-7.16z"/><path d="m227.396 1279.63c3.762 0 6.812 3.21 6.812 7.17 0 3.95-3.05 7.16-6.812 7.16h-45.978c-3.762 0-6.812-3.21-6.812-7.16 0-3.96 3.05-7.17 6.812-7.17z"/><path d="m224.842 1304.71c3.762 0 6.811 3.2 6.811 7.16s-3.049 7.16-6.811 7.16h-43.424c-3.762 0-6.812-3.2-6.812-7.16s3.05-7.16 6.812-7.16z"/><path d="m211.219 1329.78c3.762 0 6.811 3.21 6.811 7.16 0 3.96-3.049 7.16-6.811 7.16h-29.801c-3.762 0-6.812-3.2-6.812-7.16 0-3.95 3.05-7.16 6.812-7.16z"/><path d="m207.813 1354.85c3.762 0 6.811 3.21 6.811 7.16 0 3.96-3.049 7.17-6.811 7.17h-26.395c-3.762 0-6.812-3.21-6.812-7.17 0-3.95 3.05-7.16 6.812-7.16z"/><path d="m207.813 1379.92c3.762 0 6.811 3.21 6.811 7.17 0 3.95-3.049 7.16-6.811 7.16h-26.395c-3.762 0-6.812-3.21-6.812-7.16 0-3.96 3.05-7.17 6.812-7.17z"/><path d="m212.922 1405c3.761 0 6.811 3.2 6.811 7.16s-3.05 7.16-6.811 7.16h-31.504c-3.762 0-6.812-3.2-6.812-7.16s3.05-7.16 6.812-7.16z"/><path d="m224.842 1430.07c3.762 0 6.811 3.21 6.811 7.16 0 3.96-3.049 7.17-6.811 7.17h-43.424c-3.762 0-6.812-3.21-6.812-7.17 0-3.95 3.05-7.16 6.812-7.16z"/><path d="m224.842 1455.14c3.762 0 6.811 3.21 6.811 7.16 0 3.96-3.049 7.17-6.811 7.17h-43.424c-3.762 0-6.812-3.21-6.812-7.17 0-3.95 3.05-7.16 6.812-7.16z"/><path d="m219.733 1480.21c3.762 0 6.812 3.21 6.812 7.17 0 3.95-3.05 7.16-6.812 7.16h-38.315c-3.762 0-6.812-3.21-6.812-7.16 0-3.96 3.05-7.17 6.812-7.17z"/></g><path d="m160.983 151.363c2.822 0 5.109 2.405 5.109 5.372v3.582c0 2.968-2.287 5.373-5.109 5.373-2.821 0-5.109-2.405-5.109-5.373v-3.582c0-2.967 2.288-5.372 5.109-5.372z" fill="url(#b)"/><path d="m159.706 176.435c3.527 0 6.386 3.007 6.386 6.716v.896c0 3.709-2.859 6.716-6.386 6.716s-6.386-3.007-6.386-6.716v-.896c0-3.709 2.859-6.716 6.386-6.716z" fill="url(#b)"/><path d="m159.28 201.508c3.762 0 6.812 3.207 6.812 7.164 0 3.956-3.05 7.163-6.812 7.163h-1.703c-3.762 0-6.811-3.207-6.811-7.163 0-3.957 3.049-7.164 6.811-7.164z" fill="url(#b)"/><path d="m159.28 226.581c3.762 0 6.812 3.207 6.812 7.163 0 3.957-3.05 7.164-6.812 7.164h-5.96c-3.762 0-6.812-3.207-6.812-7.164 0-3.956 3.05-7.163 6.812-7.163z" fill="url(#b)"/><path d="m159.28 251.653c3.762 0 6.812 3.208 6.812 7.164s-3.05 7.164-6.812 7.164h-11.92c-3.762 0-6.812-3.208-6.812-7.164s3.05-7.164 6.812-7.164z" fill="url(#b)"/><path d="m159.28 276.726c3.762 0 6.812 3.207 6.812 7.164 0 3.956-3.05 7.163-6.812 7.163h-15.326c-3.762 0-6.812-3.207-6.812-7.163 0-3.957 3.05-7.164 6.812-7.164z" fill="url(#b)"/><path d="m159.28 301.799c3.762 0 6.812 3.207 6.812 7.163 0 3.957-3.05 7.164-6.812 7.164h-19.583c-3.762 0-6.812-3.207-6.812-7.164 0-3.956 3.05-7.163 6.812-7.163z" fill="url(#b)"/><path d="m159.28 326.871c3.762 0 6.812 3.208 6.812 7.164s-3.05 7.164-6.812 7.164h-26.395c-3.762 0-6.811-3.208-6.811-7.164s3.049-7.164 6.811-7.164z" fill="url(#b)"/><path d="m159.28 351.944c3.762 0 6.812 3.207 6.812 7.164 0 3.956-3.05 7.163-6.812 7.163h-34.909c-3.762 0-6.812-3.207-6.812-7.163 0-3.957 3.05-7.164 6.812-7.164z" fill="url(#b)"/><path d="m159.28 377.017c3.762 0 6.812 3.207 6.812 7.163 0 3.957-3.05 7.164-6.812 7.164h-38.315c-3.762 0-6.812-3.207-6.812-7.164 0-3.956 3.05-7.163 6.812-7.163z" fill="url(#b)"/><path d="m159.28 402.089c3.762 0 6.812 3.208 6.812 7.164s-3.05 7.164-6.812 7.164h-40.87c-3.761 0-6.811-3.208-6.811-7.164s3.05-7.164 6.811-7.164z" fill="url(#b)"/><path d="m159.28 427.162c3.762 0 6.812 3.207 6.812 7.164 0 3.956-3.05 7.163-6.812 7.163h-40.87c-3.761 0-6.811-3.207-6.811-7.163 0-3.957 3.05-7.164 6.811-7.164z" fill="url(#b)"/><path d="m159.28 452.235c3.762 0 6.812 3.207 6.812 7.163 0 3.957-3.05 7.164-6.812 7.164h-42.572c-3.762 0-6.812-3.207-6.812-7.164 0-3.956 3.05-7.163 6.812-7.163z" fill="url(#b)"/><path d="m159.28 477.307c3.762 0 6.812 3.208 6.812 7.164s-3.05 7.164-6.812 7.164h-42.572c-3.762 0-6.812-3.208-6.812-7.164s3.05-7.164 6.812-7.164z" fill="url(#b)"/><path d="m159.28 502.38c3.762 0 6.812 3.207 6.812 7.164 0 3.956-3.05 7.163-6.812 7.163h-45.978c-3.762 0-6.812-3.207-6.812-7.163 0-3.957 3.05-7.164 6.812-7.164z" fill="url(#b)"/><path d="m159.28 527.453c3.762 0 6.812 3.207 6.812 7.163 0 3.957-3.05 7.164-6.812 7.164h-48.533c-3.762 0-6.811-3.207-6.811-7.164 0-3.956 3.049-7.163 6.811-7.163z" fill="url(#b)"/><path d="m159.28 552.525c3.762 0 6.812 3.208 6.812 7.164s-3.05 7.164-6.812 7.164h-55.344c-3.762 0-6.8118-3.208-6.8118-7.164s3.0498-7.164 6.8118-7.164z" fill="url(#b)"/><path d="m159.28 577.598c3.762 0 6.812 3.207 6.812 7.164 0 3.956-3.05 7.163-6.812 7.163h-62.1558c-3.762 0-6.8116-3.207-6.8116-7.163 0-3.957 3.0496-7.164 6.8116-7.164z" fill="url(#b)"/><path d="m159.28 602.671c3.762 0 6.812 3.207 6.812 7.163 0 3.957-3.05 7.164-6.812 7.164h-72.3732c-3.762 0-6.8116-3.207-6.8116-7.164 0-3.956 3.0496-7.163 6.8116-7.163z" fill="url(#b)"/><path d="m159.28 627.743c3.762 0 6.812 3.208 6.812 7.164s-3.05 7.164-6.812 7.164h-83.4421c-3.7619 0-6.8116-3.208-6.8116-7.164s3.0497-7.164 6.8116-7.164z" fill="url(#b)"/><path d="m159.28 652.816c3.762 0 6.812 3.207 6.812 7.164 0 3.956-3.05 7.163-6.812 7.163h-90.2537c-3.7619 0-6.8116-3.207-6.8116-7.163 0-3.957 3.0497-7.164 6.8116-7.164z" fill="url(#b)"/><path d="m159.28 677.889c3.762 0 6.812 3.207 6.812 7.163 0 3.957-3.05 7.164-6.812 7.164h-98.7682c-3.762 0-6.8116-3.207-6.8116-7.164 0-3.956 3.0496-7.163 6.8116-7.163z" fill="url(#b)"/><path d="m159.28 702.961c3.762 0 6.812 3.208 6.812 7.164s-3.05 7.164-6.812 7.164l-102.174-.001c-3.762 0-6.8116-3.207-6.8116-7.163s3.0496-7.164 6.8116-7.164z" fill="url(#b)"/><path d="m159.28 728.034c3.762 0 6.812 3.207 6.812 7.164 0 3.956-3.05 7.163-6.812 7.163h-108.9856c-3.762 0-6.8116-3.207-6.8116-7.163 0-3.957 3.0496-7.164 6.8116-7.164z" fill="url(#b)"/><path d="m159.28 753.107c3.762 0 6.812 3.207 6.812 7.163 0 3.957-3.05 7.164-6.812 7.164h-108.9856c-3.762 0-6.8116-3.207-6.8116-7.164 0-3.956 3.0496-7.163 6.8116-7.163z" fill="url(#b)"/><path d="m159.28 778.179c3.762 0 6.812 3.208 6.812 7.164s-3.05 7.164-6.812 7.164h-108.9856c-3.762 0-6.8116-3.208-6.8116-7.164s3.0496-7.164 6.8116-7.164z" fill="url(#b)"/><path d="m159.28 803.252c3.762 0 6.812 3.207 6.812 7.164 0 3.956-3.05 7.163-6.812 7.163h-108.9856c-3.762 0-6.8116-3.207-6.8116-7.163 0-3.957 3.0496-7.164 6.8116-7.164z" fill="url(#b)"/><path d="m159.28 828.325c3.762 0 6.812 3.207 6.812 7.163 0 3.957-3.05 7.164-6.812 7.164h-98.7682c-3.762 0-6.8116-3.207-6.8116-7.164 0-3.956 3.0496-7.163 6.8116-7.163z" fill="url(#b)"/><path d="m159.28 853.397c3.762 0 6.812 3.207 6.812 7.164 0 3.956-3.05 7.163-6.812 7.163h-90.2537c-3.7619 0-6.8116-3.207-6.8116-7.163 0-3.957 3.0497-7.164 6.8116-7.164z" fill="url(#b)"/><path d="m159.28 878.47c3.762 0 6.812 3.207 6.812 7.164 0 3.956-3.05 7.163-6.812 7.163h-79.1848c-3.762 0-6.8116-3.207-6.8116-7.163 0-3.957 3.0496-7.164 6.8116-7.164z" fill="url(#b)"/><path d="m159.28 903.543c3.762 0 6.812 3.207 6.812 7.163 0 3.957-3.05 7.164-6.812 7.164h-65.5616c-3.762 0-6.8116-3.207-6.8116-7.164 0-3.956 3.0496-7.163 6.8116-7.163z" fill="url(#b)"/><path d="m159.28 928.615c3.762 0 6.812 3.208 6.812 7.164s-3.05 7.163-6.812 7.163h-54.493c-3.762 0-6.8114-3.207-6.8114-7.163 0-3.957 3.0494-7.164 6.8114-7.164z" fill="url(#b)"/><path d="m159.28 953.688c3.762 0 6.812 3.207 6.812 7.164 0 3.956-3.05 7.163-6.812 7.163h-42.572c-3.762 0-6.812-3.207-6.812-7.163 0-3.957 3.05-7.164 6.812-7.164z" fill="url(#b)"/><path d="m159.28 978.76c3.762 0 6.812 3.208 6.812 7.164s-3.05 7.164-6.812 7.164h-36.612c-3.762 0-6.812-3.208-6.812-7.164s3.05-7.164 6.812-7.164z" fill="url(#b)"/><path d="m159.28 1003.83c3.762 0 6.812 3.21 6.812 7.17 0 3.95-3.05 7.16-6.812 7.16h-30.652c-3.762 0-6.812-3.21-6.812-7.16 0-3.96 3.05-7.17 6.812-7.17z" fill="url(#b)"/><path d="m159.28 1028.91c3.762 0 6.812 3.2 6.812 7.16s-3.05 7.16-6.812 7.16h-27.246c-3.762 0-6.812-3.2-6.812-7.16s3.05-7.16 6.812-7.16z" fill="url(#b)"/><path d="m159.28 1053.98c3.762 0 6.812 3.21 6.812 7.16 0 3.96-3.05 7.17-6.812 7.17h-26.395c-3.762 0-6.811-3.21-6.811-7.17 0-3.95 3.049-7.16 6.811-7.16z" fill="url(#b)"/><path d="m159.28 1079.05c3.762 0 6.812 3.21 6.812 7.16 0 3.96-3.05 7.17-6.812 7.17h-26.395c-3.762 0-6.811-3.21-6.811-7.17 0-3.95 3.049-7.16 6.811-7.16z" fill="url(#b)"/><path d="m159.28 1104.12c3.762 0 6.812 3.21 6.812 7.17 0 3.95-3.05 7.16-6.812 7.16h-24.692c-3.762 0-6.812-3.21-6.812-7.16 0-3.96 3.05-7.17 6.812-7.17z" fill="url(#b)"/><path d="m159.28 1129.2c3.762 0 6.812 3.2 6.812 7.16s-3.05 7.16-6.812 7.16h-21.286c-3.762 0-6.812-3.2-6.812-7.16s3.05-7.16 6.812-7.16z" fill="url(#b)"/><path d="m159.28 1154.27c3.762 0 6.812 3.21 6.812 7.16 0 3.96-3.05 7.17-6.812 7.17h-18.732c-3.762 0-6.811-3.21-6.811-7.17 0-3.95 3.049-7.16 6.811-7.16z" fill="url(#b)"/><path d="m159.28 1179.34c3.762 0 6.812 3.21 6.812 7.17 0 3.95-3.05 7.16-6.812 7.16h-13.623c-3.762 0-6.812-3.21-6.812-7.16 0-3.96 3.05-7.17 6.812-7.17z" fill="url(#b)"/><path d="m159.28 1204.41c3.762 0 6.812 3.21 6.812 7.17 0 3.95-3.05 7.16-6.812 7.16h-7.663c-3.762 0-6.812-3.21-6.812-7.16 0-3.96 3.05-7.17 6.812-7.17z" fill="url(#b)"/><path d="m159.28 1229.49c3.762 0 6.812 3.2 6.812 7.16s-3.05 7.16-6.812 7.16h-.851c-3.762 0-6.812-3.2-6.812-7.16s3.05-7.16 6.812-7.16z" fill="url(#b)"/><path d="m160.132 1254.56c3.291 0 5.96 2.81 5.96 6.27v1.79c0 3.46-2.669 6.27-5.96 6.27-3.292 0-5.961-2.81-5.961-6.27v-1.79c0-3.46 2.669-6.27 5.961-6.27z" fill="url(#b)"/><path d="m162.26 1279.63c2.116 0 3.832 1.81 3.832 4.03v6.27c0 2.23-1.716 4.03-3.832 4.03s-3.831-1.8-3.831-4.03v-6.27c0-2.22 1.715-4.03 3.831-4.03z" fill="url(#b)"/></svg>