<svg fill="none" height="531" viewBox="0 0 1366 531" width="1366" xmlns="http://www.w3.org/2000/svg" xmlns:xlink="http://www.w3.org/1999/xlink"><linearGradient id="a" gradientUnits="userSpaceOnUse" x1="696.5" x2="696.5" y1="0" y2="530.393"><stop offset="0" stop-color="#ff5cb2"/><stop offset="1" stop-color="#c625ff"/></linearGradient><linearGradient id="b" gradientUnits="userSpaceOnUse" x1="1368" x2="1368" y1="270.721" y2="280.666"><stop offset="0" stop-color="#4742ff"/><stop offset="1" stop-color="#706cfb"/></linearGradient><path d="m352 285.086c0-4.882 3.582-8.84 8-8.84s8 3.958 8 8.84v49.725c0 4.882-3.582 8.839-8 8.839s-8-3.957-8-8.839z" fill="#d1d0ff"/><path d="m380 285.086c0-4.882 3.582-8.84 8-8.84s8 3.958 8 8.84v65.194c0 4.883-3.582 8.84-8 8.84s-8-3.957-8-8.84z" fill="#d1d0ff"/><path d="m408 285.086c0-4.882 3.582-8.84 8-8.84s8 3.958 8 8.84v75.139c0 4.882-3.582 8.84-8 8.84s-8-3.958-8-8.84z" fill="#d1d0ff"/><path d="m436 285.086c0-4.882 3.582-8.84 8-8.84s8 3.958 8 8.84v92.819c0 4.882-3.582 8.84-8 8.84s-8-3.958-8-8.84z" fill="#d1d0ff"/><path d="m464 285.086c0-4.882 3.582-8.84 8-8.84s8 3.958 8 8.84v106.079c0 4.882-3.582 8.84-8 8.84s-8-3.958-8-8.84z" fill="#d1d0ff"/><path d="m492 285.086c0-4.882 3.582-8.84 8-8.84s8 3.958 8 8.84v122.654c0 4.882-3.582 8.84-8 8.84s-8-3.958-8-8.84z" fill="#d1d0ff"/><path d="m520 285.086c0-4.882 3.582-8.84 8-8.84s8 3.958 8 8.84v135.913c0 4.883-3.582 8.84-8 8.84s-8-3.957-8-8.84z" fill="#d1d0ff"/><path d="m548 285.086c0-4.882 3.582-8.84 8-8.84s8 3.958 8 8.84v148.068c0 4.882-3.582 8.84-8 8.84s-8-3.958-8-8.84z" fill="#d1d0ff"/><path d="m576 285.086c0-4.882 3.582-8.84 8-8.84s8 3.958 8 8.84v163.538c0 4.882-3.582 8.84-8 8.84s-8-3.958-8-8.84z" fill="#d1d0ff"/><path d="m604 285.086c0-4.882 3.582-8.84 8-8.84s8 3.958 8 8.84v174.588c0 4.882-3.582 8.84-8 8.84s-8-3.958-8-8.84z" fill="#d1d0ff"/><path d="m632 285.086c0-4.882 3.582-8.84 8-8.84s8 3.958 8 8.84v186.743c0 4.882-3.582 8.84-8 8.84s-8-3.958-8-8.84z" fill="#d1d0ff"/><path d="m660 285.086c0-4.882 3.582-8.84 8-8.84s8 3.958 8 8.84v195.583c0 4.882-3.582 8.84-8 8.84s-8-3.958-8-8.84z" fill="#d1d0ff"/><path d="m688 285.086c0-4.882 3.582-8.84 8-8.84s8 3.958 8 8.84v201.108c0 4.882-3.582 8.84-8 8.84s-8-3.958-8-8.84z" fill="#d1d0ff"/><path d="m716 285.086c0-4.882 3.582-8.84 8-8.84s8 3.958 8 8.84v208.842c0 4.883-3.582 8.84-8 8.84s-8-3.957-8-8.84z" fill="#d1d0ff"/><path d="m744 285.086c0-4.882 3.582-8.84 8-8.84s8 3.958 8 8.84v214.367c0 4.883-3.582 8.84-8 8.84s-8-3.957-8-8.84z" fill="#d1d0ff"/><path d="m772 285.086c0-4.882 3.582-8.84 8-8.84s8 3.958 8 8.84v214.367c0 4.883-3.582 8.84-8 8.84s-8-3.957-8-8.84z" fill="#d1d0ff"/><path d="m800 285.086c0-4.882 3.582-8.84 8-8.84s8 3.958 8 8.84v208.842c0 4.883-3.582 8.84-8 8.84s-8-3.957-8-8.84z" fill="#d1d0ff"/><path d="m828 285.086c0-4.882 3.582-8.84 8-8.84s8 3.958 8 8.84v204.423c0 4.882-3.582 8.839-8 8.839s-8-3.957-8-8.839z" fill="#d1d0ff"/><path d="m856 285.086c0-4.882 3.582-8.84 8-8.84s8 3.958 8 8.84v201.108c0 4.882-3.582 8.84-8 8.84s-8-3.958-8-8.84z" fill="#d1d0ff"/><path d="m884 285.086c0-4.882 3.582-8.84 8-8.84s8 3.958 8 8.84v186.743c0 4.882-3.582 8.84-8 8.84s-8-3.958-8-8.84z" fill="#d1d0ff"/><path d="m912 285.086c0-4.882 3.582-8.84 8-8.84s8 3.958 8 8.84v167.958c0 4.882-3.582 8.84-8 8.84s-8-3.958-8-8.84z" fill="#d1d0ff"/><path d="m940 285.086c0-4.882 3.582-8.84 8-8.84s8 3.958 8 8.84v151.383c0 4.882-3.582 8.84-8 8.84s-8-3.958-8-8.84z" fill="#d1d0ff"/><path d="m968 285.086c0-4.882 3.582-8.84 8-8.84s8 3.958 8 8.84v127.074c0 4.882-3.582 8.839-8 8.839s-8-3.957-8-8.839z" fill="#d1d0ff"/><path d="m996 285.086c0-4.882 3.582-8.84 8-8.84 4.42 0 8 3.958 8 8.84v106.079c0 4.882-3.58 8.84-8 8.84-4.418 0-8-3.958-8-8.84z" fill="#d1d0ff"/><path d="m1024 285.086c0-4.882 3.58-8.84 8-8.84s8 3.958 8 8.84v87.294c0 4.882-3.58 8.84-8 8.84s-8-3.958-8-8.84z" fill="#d1d0ff"/><path d="m1052 285.086c0-4.882 3.58-8.84 8-8.84s8 3.958 8 8.84v66.299c0 4.883-3.58 8.84-8 8.84s-8-3.957-8-8.84z" fill="#d1d0ff"/><path d="m1080 285.086c0-4.882 3.58-8.84 8-8.84s8 3.958 8 8.84v49.725c0 4.882-3.58 8.839-8 8.839s-8-3.957-8-8.839z" fill="#d1d0ff"/><path d="m1108 285.086c0-4.882 3.58-8.84 8-8.84s8 3.958 8 8.84v38.675c0 4.882-3.58 8.84-8 8.84s-8-3.958-8-8.84z" fill="#d1d0ff"/><path d="m1136 285.086c0-4.882 3.58-8.84 8-8.84s8 3.958 8 8.84v38.675c0 4.882-3.58 8.84-8 8.84s-8-3.958-8-8.84z" fill="#d1d0ff"/><path d="m1164 285.086c0-4.882 3.58-8.84 8-8.84s8 3.958 8 8.84v34.255c0 4.882-3.58 8.84-8 8.84s-8-3.958-8-8.84z" fill="#d1d0ff"/><path d="m1192 285.086c0-4.882 3.58-8.84 8-8.84s8 3.958 8 8.84v34.255c0 4.882-3.58 8.84-8 8.84s-8-3.958-8-8.84z" fill="#d1d0ff"/><path d="m1220 285.086c0-4.882 3.58-8.84 8-8.84s8 3.958 8 8.84v38.675c0 4.882-3.58 8.84-8 8.84s-8-3.958-8-8.84z" fill="#d1d0ff"/><path d="m1248 285.086c0-4.882 3.58-8.84 8-8.84s8 3.958 8 8.84v46.41c0 4.882-3.58 8.84-8 8.84s-8-3.958-8-8.84z" fill="#d1d0ff"/><path d="m1276 285.086c0-4.882 3.58-8.84 8-8.84s8 3.958 8 8.84v58.564c0 4.883-3.58 8.84-8 8.84s-8-3.957-8-8.84z" fill="#d1d0ff"/><path d="m1304 285.086c0-4.882 3.58-8.84 8-8.84s8 3.958 8 8.84v61.879c0 4.883-3.58 8.84-8 8.84s-8-3.957-8-8.84z" fill="#d1d0ff"/><path d="m1332 281.771c0-4.882 3.58-8.84 8-8.84s8 3.958 8 8.84v68.509c0 4.883-3.58 8.84-8 8.84s-8-3.957-8-8.84z" fill="#d1d0ff"/><path d="m1360 279.561c0-4.882 3.58-8.84 8-8.84s8 3.958 8 8.84v67.404c0 4.883-3.58 8.84-8 8.84s-8-3.957-8-8.84z" fill="#d1d0ff"/><path d="m1388 280.666c0-4.882 3.58-8.84 8-8.84s8 3.958 8 8.84v58.565c0 4.882-3.58 8.839-8 8.839s-8-3.957-8-8.839z" fill="#d1d0ff"/><path d="m1416 280.666c0-4.882 3.58-8.84 8-8.84s8 3.958 8 8.84v51.935c0 4.882-3.58 8.84-8 8.84s-8-3.958-8-8.84z" fill="#d1d0ff"/><path d="m1444 280.666c0-4.882 3.58-8.84 8-8.84s8 3.958 8 8.84v46.41c0 4.882-3.58 8.84-8 8.84s-8-3.958-8-8.84z" fill="#d1d0ff"/><path d="m1472 280.666c0-4.882 3.58-8.84 8-8.84s8 3.958 8 8.84v32.045c0 4.882-3.58 8.84-8 8.84s-8-3.958-8-8.84z" fill="#d1d0ff"/><path d="m1500 280.666c0-4.882 3.58-8.84 8-8.84s8 3.958 8 8.84v16.575c0 4.882-3.58 8.84-8 8.84s-8-3.958-8-8.84z" fill="#d1d0ff"/><path d="m1528 280.666c0-4.882 3.58-8.84 8-8.84s8 3.958 8 8.84-3.58 8.84-8 8.84-8-3.958-8-8.84z" fill="#d1d0ff"/><path d="m-68 167.958c0-4.882 3.5817-8.84 8-8.84s8 3.958 8 8.84v82.874c0 4.882-3.5817 8.84-8 8.84s-8-3.958-8-8.84z" fill="#f1c9ff"/><path d="m-40 139.228c0-4.882 3.5817-8.84 8-8.84s8 3.958 8 8.84v111.604c0 4.882-3.5817 8.84-8 8.84s-8-3.958-8-8.84z" fill="#f1c9ff"/><path d="m-12 112.709c0-4.883 3.58173-8.84 8-8.84 4.418274 0 8 3.957 8 8.84v138.123c0 4.882-3.581726 8.84-8 8.84-4.41827 0-8-3.958-8-8.84z" fill="#f1c9ff"/><path d="m16 88.3988c0-4.8821 3.5817-8.8398 8-8.8398s8 3.9577 8 8.8398v162.4332c0 4.882-3.5817 8.84-8 8.84s-8-3.958-8-8.84z" fill="#f1c9ff"/><path d="m44 72.929c0-4.8821 3.5817-8.8398 8-8.8398s8 3.9577 8 8.8398v177.903c0 4.882-3.5817 8.84-8 8.84s-8-3.958-8-8.84z" fill="#f1c9ff"/><path d="m72 58.5642c0-4.8821 3.5817-8.8399 8-8.8399s8 3.9578 8 8.8399v192.2678c0 4.882-3.5817 8.84-8 8.84s-8-3.958-8-8.84v-96.134z" fill="#f1c9ff"/><path d="m100 48.6194c0-4.8822 3.582-8.8399 8-8.8399s8 3.9577 8 8.8399v202.2126c0 4.882-3.582 8.84-8 8.84s-8-3.958-8-8.84z" fill="#f1c9ff"/><path d="m128 48.6194c0-4.8822 3.582-8.8399 8-8.8399s8 3.9577 8 8.8399v202.2126c0 4.882-3.582 8.84-8 8.84s-8-3.958-8-8.84z" fill="#f1c9ff"/><path d="m156 48.6194c0-4.8822 3.582-8.8399 8-8.8399s8 3.9577 8 8.8399v202.2126c0 4.882-3.582 8.84-8 8.84s-8-3.958-8-8.84z" fill="#f1c9ff"/><path d="m184 48.6194c0-4.8822 3.582-8.8399 8-8.8399s8 3.9577 8 8.8399v202.2126c0 4.882-3.582 8.84-8 8.84s-8-3.958-8-8.84z" fill="#f1c9ff"/><path d="m212 54.1443c0-4.8821 3.582-8.8399 8-8.8399s8 3.9578 8 8.8399v196.6877c0 4.882-3.582 8.84-8 8.84s-8-3.958-8-8.84z" fill="#f1c9ff"/><path d="m240 61.8792c0-4.8821 3.582-8.8399 8-8.8399s8 3.9578 8 8.8399v188.9528c0 4.882-3.582 8.84-8 8.84s-8-3.958-8-8.84z" fill="#f1c9ff"/><path d="m268 70.7191c0-4.8822 3.582-8.8399 8-8.8399s8 3.9577 8 8.8399v180.1129c0 4.882-3.582 8.84-8 8.84s-8-3.958-8-8.84z" fill="#f1c9ff"/><path d="m296 76.244c0-4.8821 3.582-8.8399 8-8.8399s8 3.9578 8 8.8399v174.588c0 4.882-3.582 8.84-8 8.84s-8-3.958-8-8.84z" fill="#f1c9ff"/><path d="m324 83.9789c0-4.8821 3.582-8.8399 8-8.8399s8 3.9578 8 8.8399v166.8531c0 4.882-3.582 8.84-8 8.84s-8-3.958-8-8.84z" fill="#f1c9ff"/><path d="m352 91.7138c0-4.8821 3.582-8.8399 8-8.8399s8 3.9578 8 8.8399v159.1182c0 4.882-3.582 8.84-8 8.84s-8-3.958-8-8.84z" fill="#f1c9ff"/><path d="m380 99.4487c0-4.8821 3.582-8.8399 8-8.8399s8 3.9578 8 8.8399v151.3833c0 4.882-3.582 8.84-8 8.84s-8-3.958-8-8.84z" fill="#f1c9ff"/><path d="m408 112.709c0-4.883 3.582-8.84 8-8.84s8 3.957 8 8.84v138.123c0 4.882-3.582 8.84-8 8.84s-8-3.958-8-8.84z" fill="#f1c9ff"/><path d="m436 122.653c0-4.882 3.582-8.839 8-8.839s8 3.957 8 8.839v128.179c0 4.882-3.582 8.84-8 8.84s-8-3.958-8-8.84z" fill="#f1c9ff"/><path d="m464 130.388c0-4.882 3.582-8.84 8-8.84s8 3.958 8 8.84v120.444c0 4.882-3.582 8.84-8 8.84s-8-3.958-8-8.84z" fill="#f1c9ff"/><path d="m492 133.703c0-4.882 3.582-8.84 8-8.84s8 3.958 8 8.84v117.129c0 4.882-3.582 8.84-8 8.84s-8-3.958-8-8.84z" fill="#f1c9ff"/><path d="m520 135.913c0-4.882 3.582-8.84 8-8.84s8 3.958 8 8.84v114.919c0 4.882-3.582 8.84-8 8.84s-8-3.958-8-8.84z" fill="#f1c9ff"/><path d="m548 135.913c0-4.882 3.582-8.84 8-8.84s8 3.958 8 8.84v114.919c0 4.882-3.582 8.84-8 8.84s-8-3.958-8-8.84z" fill="#f1c9ff"/><path d="m576 133.703c0-4.882 3.582-8.84 8-8.84s8 3.958 8 8.84v117.129c0 4.882-3.582 8.84-8 8.84s-8-3.958-8-8.84z" fill="#f1c9ff"/><path d="m604 127.073c0-4.882 3.582-8.84 8-8.84s8 3.958 8 8.84v123.759c0 4.882-3.582 8.84-8 8.84s-8-3.958-8-8.84z" fill="#f1c9ff"/><path d="m632 130.388c0-4.882 3.582-8.84 8-8.84s8 3.958 8 8.84v120.444c0 4.882-3.582 8.84-8 8.84s-8-3.958-8-8.84z" fill="#f1c9ff"/><path d="m660 139.228c0-4.882 3.582-8.84 8-8.84s8 3.958 8 8.84v111.604c0 4.882-3.582 8.84-8 8.84s-8-3.958-8-8.84z" fill="#f1c9ff"/><path d="m688 153.593c0-4.882 3.582-8.84 8-8.84s8 3.958 8 8.84v97.239c0 4.882-3.582 8.84-8 8.84s-8-3.958-8-8.84z" fill="#f1c9ff"/><path d="m716 163.538c0-4.882 3.582-8.84 8-8.84s8 3.958 8 8.84v87.294c0 4.882-3.582 8.84-8 8.84s-8-3.958-8-8.84z" fill="#f1c9ff"/><path d="m744 175.693c0-4.882 3.582-8.84 8-8.84s8 3.958 8 8.84v75.139c0 4.882-3.582 8.84-8 8.84s-8-3.958-8-8.84z" fill="#f1c9ff"/><path d="m772 191.162c0-4.882 3.582-8.839 8-8.839s8 3.957 8 8.839v59.67c0 4.882-3.582 8.84-8 8.84s-8-3.958-8-8.84z" fill="#f1c9ff"/><path d="m800 204.422c0-4.882 3.582-8.84 8-8.84s8 3.958 8 8.84v46.41c0 4.882-3.582 8.84-8 8.84s-8-3.958-8-8.84z" fill="#f1c9ff"/><path d="m828 212.157c0-4.882 3.582-8.84 8-8.84s8 3.958 8 8.84v38.675c0 4.882-3.582 8.84-8 8.84s-8-3.958-8-8.84z" fill="#f1c9ff"/><path d="m1360 169.063c0-4.882 3.58-8.84 8-8.84s8 3.958 8 8.84v81.769c0 4.882-3.58 8.84-8 8.84s-8-3.958-8-8.84z" fill="#f1c9ff"/><path d="m1388 160.223c0-4.882 3.58-8.84 8-8.84s8 3.958 8 8.84v90.609c0 4.882-3.58 8.84-8 8.84s-8-3.958-8-8.84z" fill="#f1c9ff"/><path d="m1416 148.068c0-4.882 3.58-8.84 8-8.84s8 3.958 8 8.84v102.764c0 4.882-3.58 8.84-8 8.84s-8-3.958-8-8.84z" fill="#f1c9ff"/><path d="m1444 130.388c0-4.882 3.58-8.84 8-8.84s8 3.958 8 8.84v120.444c0 4.882-3.58 8.84-8 8.84s-8-3.958-8-8.84z" fill="#f1c9ff"/><path d="m1472 121.548c0-4.882 3.58-8.839 8-8.839s8 3.957 8 8.839v129.284c0 4.882-3.58 8.84-8 8.84s-8-3.958-8-8.84z" fill="#f1c9ff"/><path d="m1500 133.703c0-4.882 3.58-8.84 8-8.84s8 3.958 8 8.84v117.129c0 4.882-3.58 8.84-8 8.84s-8-3.958-8-8.84z" fill="#f1c9ff"/><path d="m1528 153.593c0-4.882 3.58-8.84 8-8.84s8 3.958 8 8.84v97.239c0 4.882-3.58 8.84-8 8.84s-8-3.958-8-8.84z" fill="#f1c9ff"/><path d="m1556 169.063c0-4.882 3.58-8.84 8-8.84s8 3.958 8 8.84v81.769c0 4.882-3.58 8.84-8 8.84s-8-3.958-8-8.84z" fill="#f1c9ff"/><g fill="url(#a)"><path d="m-68 200.002c0-4.882 3.5817-8.84 8-8.84s8 3.958 8 8.84v50.83c0 4.882-3.5817 8.84-8 8.84s-8-3.958-8-8.84z"/><path d="m-40 172.378c0-4.882 3.5817-8.84 8-8.84s8 3.958 8 8.84v78.454c0 4.882-3.5817 8.84-8 8.84s-8-3.958-8-8.84z"/><path d="m-12 142.543c0-4.882 3.58173-8.84 8-8.84 4.418274 0 8 3.958 8 8.84v108.289c0 4.882-3.581726 8.84-8 8.84-4.41827 0-8-3.958-8-8.84z"/><path d="m16 122.653c0-4.882 3.5817-8.839 8-8.839s8 3.957 8 8.839v128.179c0 4.882-3.5817 8.84-8 8.84s-8-3.958-8-8.84z"/><path d="m44 104.974c0-4.883 3.5817-8.8403 8-8.8403s8 3.9573 8 8.8403v145.858c0 4.882-3.5817 8.84-8 8.84s-8-3.958-8-8.84z"/><path d="m72 99.4487c0-4.8821 3.5817-8.8399 8-8.8399s8 3.9578 8 8.8399v151.3833c0 4.882-3.5817 8.84-8 8.84s-8-3.958-8-8.84z"/><path d="m100 99.4487c0-4.8821 3.582-8.8399 8-8.8399s8 3.9578 8 8.8399v151.3833c0 4.882-3.582 8.84-8 8.84s-8-3.958-8-8.84z"/><path d="m128 99.4487c0-4.8821 3.582-8.8399 8-8.8399s8 3.9578 8 8.8399v151.3833c0 4.882-3.582 8.84-8 8.84s-8-3.958-8-8.84z"/><path d="m156 99.4487c0-4.8821 3.582-8.8399 8-8.8399s8 3.9578 8 8.8399v151.3833c0 4.882-3.582 8.84-8 8.84s-8-3.958-8-8.84z"/><path d="m184 104.974c0-4.883 3.582-8.8403 8-8.8403s8 3.9573 8 8.8403v145.858c0 4.882-3.582 8.84-8 8.84s-8-3.958-8-8.84z"/><path d="m212 116.023c0-4.882 3.582-8.839 8-8.839s8 3.957 8 8.839v134.809c0 4.882-3.582 8.84-8 8.84s-8-3.958-8-8.84z"/><path d="m240 127.073c0-4.882 3.582-8.84 8-8.84s8 3.958 8 8.84v123.759c0 4.882-3.582 8.84-8 8.84s-8-3.958-8-8.84z"/><path d="m268 142.543c0-4.882 3.582-8.84 8-8.84s8 3.958 8 8.84v108.289c0 4.882-3.582 8.84-8 8.84s-8-3.958-8-8.84z"/><path d="m296 148.068c0-4.882 3.582-8.84 8-8.84s8 3.958 8 8.84v102.764c0 4.882-3.582 8.84-8 8.84s-8-3.958-8-8.84z"/><path d="m324 155.803c0-4.882 3.582-8.84 8-8.84s8 3.958 8 8.84v95.029c0 4.882-3.582 8.84-8 8.84s-8-3.958-8-8.84z"/><path d="m352 160.223c0-4.882 3.582-8.84 8-8.84s8 3.958 8 8.84v90.609c0 4.882-3.582 8.84-8 8.84s-8-3.958-8-8.84z"/><path d="m380 160.223c0-4.882 3.582-8.84 8-8.84s8 3.958 8 8.84v90.609c0 4.882-3.582 8.84-8 8.84s-8-3.958-8-8.84z"/><path d="m408 160.223c0-4.882 3.582-8.84 8-8.84s8 3.958 8 8.84v90.609c0 4.882-3.582 8.84-8 8.84s-8-3.958-8-8.84z"/><path d="m436 163.538c0-4.882 3.582-8.84 8-8.84s8 3.958 8 8.84v87.294c0 4.882-3.582 8.84-8 8.84s-8-3.958-8-8.84z"/><path d="m464 169.063c0-4.882 3.582-8.84 8-8.84s8 3.958 8 8.84v81.769c0 4.882-3.582 8.84-8 8.84s-8-3.958-8-8.84z"/><path d="m492 181.218c0-4.883 3.582-8.84 8-8.84s8 3.957 8 8.84v69.614c0 4.882-3.582 8.84-8 8.84s-8-3.958-8-8.84z"/><path d="m520 200.002c0-4.882 3.582-8.84 8-8.84s8 3.958 8 8.84v50.83c0 4.882-3.582 8.84-8 8.84s-8-3.958-8-8.84z"/><path d="m548 212.157c0-4.882 3.582-8.84 8-8.84s8 3.958 8 8.84v38.675c0 4.882-3.582 8.84-8 8.84s-8-3.958-8-8.84z"/><path d="m576 227.627c0-4.882 3.582-8.84 8-8.84s8 3.958 8 8.84v23.205c0 4.882-3.582 8.84-8 8.84s-8-3.958-8-8.84z"/><path d="m604 243.097c0-4.882 3.582-8.84 8-8.84s8 3.958 8 8.84v7.735c0 4.882-3.582 8.84-8 8.84s-8-3.958-8-8.84z"/><path d="m632 247.517c0-4.882 3.582-8.84 8-8.84s8 3.958 8 8.84v3.315c0 4.882-3.582 8.84-8 8.84s-8-3.958-8-8.84z"/><path d="m660 247.517c0-4.882 3.582-8.84 8-8.84s8 3.958 8 8.84v3.315c0 4.882-3.582 8.84-8 8.84s-8-3.958-8-8.84z"/><path d="m688 247.517c0-4.882 3.582-8.84 8-8.84s8 3.958 8 8.84v3.315c0 4.882-3.582 8.84-8 8.84s-8-3.958-8-8.84z"/><path d="m716 247.517c0-4.882 3.582-8.84 8-8.84s8 3.958 8 8.84v3.315c0 4.882-3.582 8.84-8 8.84s-8-3.958-8-8.84z"/><path d="m744 237.572c0-4.882 3.582-8.84 8-8.84s8 3.958 8 8.84v13.26c0 4.882-3.582 8.84-8 8.84s-8-3.958-8-8.84z"/><path d="m772 247.517c0-4.882 3.582-8.84 8-8.84s8 3.958 8 8.84v3.315c0 4.882-3.582 8.84-8 8.84s-8-3.958-8-8.84z"/><path d="m800 243.097c0-4.882 3.582-8.84 8-8.84s8 3.958 8 8.84v7.735c0 4.882-3.582 8.84-8 8.84s-8-3.958-8-8.84z"/><path d="m828 227.627c0-4.882 3.582-8.84 8-8.84s8 3.958 8 8.84v23.205c0 4.882-3.582 8.84-8 8.84s-8-3.958-8-8.84z"/><path d="m856 224.312c0-4.882 3.582-8.84 8-8.84s8 3.958 8 8.84v26.52c0 4.882-3.582 8.84-8 8.84s-8-3.958-8-8.84z"/><path d="m884 224.312c0-4.882 3.582-8.84 8-8.84s8 3.958 8 8.84v26.52c0 4.882-3.582 8.84-8 8.84s-8-3.958-8-8.84z"/><path d="m912 232.047c0-4.882 3.582-8.84 8-8.84s8 3.958 8 8.84v18.785c0 4.882-3.582 8.84-8 8.84s-8-3.958-8-8.84z"/><path d="m940 237.572c0-4.882 3.582-8.84 8-8.84s8 3.958 8 8.84v13.26c0 4.882-3.582 8.84-8 8.84s-8-3.958-8-8.84z"/><path d="m968 232.047c0-4.882 3.582-8.84 8-8.84s8 3.958 8 8.84v18.785c0 4.882-3.582 8.84-8 8.84s-8-3.958-8-8.84z"/><path d="m996 204.422c0-4.882 3.582-8.84 8-8.84 4.42 0 8 3.958 8 8.84v46.41c0 4.882-3.58 8.84-8 8.84-4.418 0-8-3.958-8-8.84z"/><path d="m1024 179.008c0-4.882 3.58-8.84 8-8.84s8 3.958 8 8.84v71.824c0 4.882-3.58 8.84-8 8.84s-8-3.958-8-8.84z"/><path d="m1052 163.538c0-4.882 3.58-8.84 8-8.84s8 3.958 8 8.84v87.294c0 4.882-3.58 8.84-8 8.84s-8-3.958-8-8.84z"/><path d="m1080 151.383c0-4.882 3.58-8.84 8-8.84s8 3.958 8 8.84v99.449c0 4.882-3.58 8.84-8 8.84s-8-3.958-8-8.84z"/><path d="m1108 142.543c0-4.882 3.58-8.84 8-8.84s8 3.958 8 8.84v108.289c0 4.882-3.58 8.84-8 8.84s-8-3.958-8-8.84z"/><path d="m1136 130.388c0-4.882 3.58-8.84 8-8.84s8 3.958 8 8.84v120.444c0 4.882-3.58 8.84-8 8.84s-8-3.958-8-8.84z"/><path d="m1164 127.073c0-4.882 3.58-8.84 8-8.84s8 3.958 8 8.84v123.759c0 4.882-3.58 8.84-8 8.84s-8-3.958-8-8.84z"/><path d="m1192 133.703c0-4.882 3.58-8.84 8-8.84s8 3.958 8 8.84v117.129c0 4.882-3.58 8.84-8 8.84s-8-3.958-8-8.84z"/><path d="m1220 142.543c0-4.882 3.58-8.84 8-8.84s8 3.958 8 8.84v108.289c0 4.882-3.58 8.84-8 8.84s-8-3.958-8-8.84z"/><path d="m1248 160.223c0-4.882 3.58-8.84 8-8.84s8 3.958 8 8.84v90.609c0 4.882-3.58 8.84-8 8.84s-8-3.958-8-8.84z"/><path d="m1276 169.063c0-4.882 3.58-8.84 8-8.84s8 3.958 8 8.84v81.769c0 4.882-3.58 8.84-8 8.84s-8-3.958-8-8.84z"/><path d="m1304 169.063c0-4.882 3.58-8.84 8-8.84s8 3.958 8 8.84v81.769c0 4.882-3.58 8.84-8 8.84s-8-3.958-8-8.84z"/><path d="m1332 176.798c0-4.882 3.58-8.84 8-8.84s8 3.958 8 8.84v74.034c0 4.882-3.58 8.84-8 8.84s-8-3.958-8-8.84z"/><path d="m1360 191.162c0-4.882 3.58-8.839 8-8.839s8 3.957 8 8.839v59.67c0 4.882-3.58 8.84-8 8.84s-8-3.958-8-8.84z"/><path d="m1388 194.477c0-4.882 3.58-8.839 8-8.839s8 3.957 8 8.839v56.355c0 4.882-3.58 8.84-8 8.84s-8-3.958-8-8.84z"/><path d="m1416 212.157c0-4.882 3.58-8.84 8-8.84s8 3.958 8 8.84v38.675c0 4.882-3.58 8.84-8 8.84s-8-3.958-8-8.84z"/><path d="m1444 216.577c0-4.882 3.58-8.84 8-8.84s8 3.958 8 8.84v34.255c0 4.882-3.58 8.84-8 8.84s-8-3.958-8-8.84z"/><path d="m1472 216.577c0-4.882 3.58-8.84 8-8.84s8 3.958 8 8.84v34.255c0 4.882-3.58 8.84-8 8.84s-8-3.958-8-8.84z"/><path d="m1500 209.947c0-4.882 3.58-8.84 8-8.84s8 3.958 8 8.84v40.885c0 4.882-3.58 8.84-8 8.84s-8-3.958-8-8.84z"/><path d="m1528 194.477c0-4.882 3.58-8.839 8-8.839s8 3.957 8 8.839v56.355c0 4.882-3.58 8.84-8 8.84s-8-3.958-8-8.84z"/><path d="m1556 194.477c0-4.882 3.58-8.839 8-8.839s8 3.957 8 8.839v56.355c0 4.882-3.58 8.84-8 8.84s-8-3.958-8-8.84z"/><path d="m1584 201.107c0-4.882 3.58-8.84 8-8.84s8 3.958 8 8.84v49.725c0 4.882-3.58 8.84-8 8.84s-8-3.958-8-8.84z"/></g><path d="m100 277.351c0-3.661 2.686-6.63 6-6.63h4c3.314 0 6 2.969 6 6.63 0 3.662-2.686 6.63-6 6.63h-4c-3.314 0-6-2.968-6-6.63z" fill="url(#b)"/><path d="m128 279.009c0-4.577 3.358-8.288 7.5-8.288h1c4.142 0 7.5 3.711 7.5 8.288s-3.358 8.287-7.5 8.287h-1c-4.142 0-7.5-3.71-7.5-8.287z" fill="url(#b)"/><path d="m156 279.561c0-4.882 3.582-8.84 8-8.84s8 3.958 8 8.84v2.21c0 4.882-3.582 8.84-8 8.84s-8-3.958-8-8.84z" fill="url(#b)"/><path d="m184 279.561c0-4.882 3.582-8.84 8-8.84s8 3.958 8 8.84v7.735c0 4.882-3.582 8.84-8 8.84s-8-3.958-8-8.84z" fill="url(#b)"/><path d="m212 279.561c0-4.882 3.582-8.84 8-8.84s8 3.958 8 8.84v15.47c0 4.882-3.582 8.84-8 8.84s-8-3.958-8-8.84z" fill="url(#b)"/><path d="m240 279.561c0-4.882 3.582-8.84 8-8.84s8 3.958 8 8.84v19.89c0 4.882-3.582 8.84-8 8.84s-8-3.958-8-8.84z" fill="url(#b)"/><path d="m268 279.561c0-4.882 3.582-8.84 8-8.84s8 3.958 8 8.84v25.415c0 4.882-3.582 8.84-8 8.84s-8-3.958-8-8.84z" fill="url(#b)"/><path d="m296 279.561c0-4.882 3.582-8.84 8-8.84s8 3.958 8 8.84v34.255c0 4.882-3.582 8.84-8 8.84s-8-3.958-8-8.84z" fill="url(#b)"/><path d="m324 279.561c0-4.882 3.582-8.84 8-8.84s8 3.958 8 8.84v45.305c0 4.882-3.582 8.84-8 8.84s-8-3.958-8-8.84z" fill="url(#b)"/><path d="m352 279.561c0-4.882 3.582-8.84 8-8.84s8 3.958 8 8.84v49.725c0 4.882-3.582 8.84-8 8.84s-8-3.958-8-8.84z" fill="url(#b)"/><path d="m380 279.561c0-4.882 3.582-8.84 8-8.84s8 3.958 8 8.84v53.04c0 4.882-3.582 8.84-8 8.84s-8-3.958-8-8.84z" fill="url(#b)"/><path d="m408 279.561c0-4.882 3.582-8.84 8-8.84s8 3.958 8 8.84v53.04c0 4.882-3.582 8.84-8 8.84s-8-3.958-8-8.84z" fill="url(#b)"/><path d="m436 279.561c0-4.882 3.582-8.84 8-8.84s8 3.958 8 8.84v55.25c0 4.882-3.582 8.839-8 8.839s-8-3.957-8-8.839z" fill="url(#b)"/><path d="m464 279.561c0-4.882 3.582-8.84 8-8.84s8 3.958 8 8.84v55.25c0 4.882-3.582 8.839-8 8.839s-8-3.957-8-8.839z" fill="url(#b)"/><path d="m492 279.561c0-4.882 3.582-8.84 8-8.84s8 3.958 8 8.84v59.67c0 4.882-3.582 8.839-8 8.839s-8-3.957-8-8.839z" fill="url(#b)"/><path d="m520 279.561c0-4.882 3.582-8.84 8-8.84s8 3.958 8 8.84v62.985c0 4.882-3.582 8.839-8 8.839s-8-3.957-8-8.839z" fill="url(#b)"/><path d="m548 279.561c0-4.882 3.582-8.84 8-8.84s8 3.958 8 8.84v71.824c0 4.883-3.582 8.84-8 8.84s-8-3.957-8-8.84z" fill="url(#b)"/><path d="m576 279.561c0-4.882 3.582-8.84 8-8.84s8 3.958 8 8.84v80.664c0 4.882-3.582 8.84-8 8.84s-8-3.958-8-8.84z" fill="url(#b)"/><path d="m604 279.561c0-4.882 3.582-8.84 8-8.84s8 3.958 8 8.84v93.924c0 4.882-3.582 8.84-8 8.84s-8-3.958-8-8.84z" fill="url(#b)"/><path d="m632 279.561c0-4.882 3.582-8.84 8-8.84s8 3.958 8 8.84v108.289c0 4.882-3.582 8.84-8 8.84s-8-3.958-8-8.84z" fill="url(#b)"/><path d="m660 279.561c0-4.882 3.582-8.84 8-8.84s8 3.958 8 8.84v117.129c0 4.882-3.582 8.84-8 8.84s-8-3.958-8-8.84z" fill="url(#b)"/><path d="m688 279.561c0-4.882 3.582-8.84 8-8.84s8 3.958 8 8.84v128.179c0 4.882-3.582 8.84-8 8.84s-8-3.958-8-8.84z" fill="url(#b)"/><path d="m716 279.561c0-4.882 3.582-8.84 8-8.84s8 3.958 8 8.84v132.599c0 4.882-3.582 8.839-8 8.839s-8-3.957-8-8.839z" fill="url(#b)"/><path d="m744 279.561c0-4.882 3.582-8.84 8-8.84s8 3.958 8 8.84v141.438c0 4.883-3.582 8.84-8 8.84s-8-3.957-8-8.84z" fill="url(#b)"/><path d="m772 279.561c0-4.882 3.582-8.84 8-8.84s8 3.958 8 8.84v141.438c0 4.883-3.582 8.84-8 8.84s-8-3.957-8-8.84z" fill="url(#b)"/><path d="m800 279.561c0-4.882 3.582-8.84 8-8.84s8 3.958 8 8.84v141.438c0 4.883-3.582 8.84-8 8.84s-8-3.957-8-8.84z" fill="url(#b)"/><path d="m828 279.561c0-4.882 3.582-8.84 8-8.84s8 3.958 8 8.84v141.438c0 4.883-3.582 8.84-8 8.84s-8-3.957-8-8.84z" fill="url(#b)"/><path d="m856 279.561c0-4.882 3.582-8.84 8-8.84s8 3.958 8 8.84v128.179c0 4.882-3.582 8.84-8 8.84s-8-3.958-8-8.84z" fill="url(#b)"/><path d="m884 279.561c0-4.882 3.582-8.84 8-8.84s8 3.958 8 8.84v117.129c0 4.882-3.582 8.84-8 8.84s-8-3.958-8-8.84z" fill="url(#b)"/><path d="m912 279.561c0-4.882 3.582-8.84 8-8.84s8 3.958 8 8.84v102.764c0 4.882-3.582 8.84-8 8.84s-8-3.958-8-8.84z" fill="url(#b)"/><path d="m940 279.561c0-4.882 3.582-8.84 8-8.84s8 3.958 8 8.84v85.084c0 4.882-3.582 8.84-8 8.84s-8-3.958-8-8.84z" fill="url(#b)"/><path d="m968 279.561c0-4.882 3.582-8.84 8-8.84s8 3.958 8 8.84v70.719c0 4.883-3.582 8.84-8 8.84s-8-3.957-8-8.84z" fill="url(#b)"/><path d="m996 279.561c0-4.882 3.582-8.84 8-8.84 4.42 0 8 3.958 8 8.84v55.25c0 4.882-3.58 8.839-8 8.839-4.418 0-8-3.957-8-8.839z" fill="url(#b)"/><path d="m1024 279.561c0-4.882 3.58-8.84 8-8.84s8 3.958 8 8.84v47.515c0 4.882-3.58 8.84-8 8.84s-8-3.958-8-8.84z" fill="url(#b)"/><path d="m1052 279.561c0-4.882 3.58-8.84 8-8.84s8 3.958 8 8.84v39.78c0 4.882-3.58 8.84-8 8.84s-8-3.958-8-8.84z" fill="url(#b)"/><path d="m1080 279.561c0-4.882 3.58-8.84 8-8.84s8 3.958 8 8.84v35.36c0 4.882-3.58 8.84-8 8.84s-8-3.958-8-8.84z" fill="url(#b)"/><path d="m1108 279.561c0-4.882 3.58-8.84 8-8.84s8 3.958 8 8.84v34.255c0 4.882-3.58 8.84-8 8.84s-8-3.958-8-8.84z" fill="url(#b)"/><path d="m1136 279.561c0-4.882 3.58-8.84 8-8.84s8 3.958 8 8.84v34.255c0 4.882-3.58 8.84-8 8.84s-8-3.958-8-8.84z" fill="url(#b)"/><path d="m1164 279.561c0-4.882 3.58-8.84 8-8.84s8 3.958 8 8.84v32.045c0 4.882-3.58 8.84-8 8.84s-8-3.958-8-8.84z" fill="url(#b)"/><path d="m1192 279.561c0-4.882 3.58-8.84 8-8.84s8 3.958 8 8.84v27.625c0 4.882-3.58 8.84-8 8.84s-8-3.958-8-8.84z" fill="url(#b)"/><path d="m1220 279.561c0-4.882 3.58-8.84 8-8.84s8 3.958 8 8.84v24.31c0 4.882-3.58 8.84-8 8.84s-8-3.958-8-8.84z" fill="url(#b)"/><path d="m1248 279.561c0-4.882 3.58-8.84 8-8.84s8 3.958 8 8.84v17.68c0 4.882-3.58 8.84-8 8.84s-8-3.958-8-8.84z" fill="url(#b)"/><path d="m1276 279.561c0-4.882 3.58-8.84 8-8.84s8 3.958 8 8.84v9.945c0 4.882-3.58 8.84-8 8.84s-8-3.958-8-8.84z" fill="url(#b)"/><path d="m1304 279.561c0-4.882 3.58-8.84 8-8.84s8 3.958 8 8.84v1.105c0 4.882-3.58 8.84-8 8.84s-8-3.958-8-8.84z" fill="url(#b)"/><path d="m1332 278.456c0-4.272 3.13-7.735 7-7.735h2c3.87 0 7 3.463 7 7.735s-3.13 7.735-7 7.735h-2c-3.87 0-7-3.463-7-7.735z" fill="url(#b)"/><path d="m1360 275.694c0-2.746 2.01-4.973 4.5-4.973h7c2.49 0 4.5 2.227 4.5 4.973s-2.01 4.972-4.5 4.972h-7c-2.49 0-4.5-2.226-4.5-4.972z" fill="url(#b)"/></svg>