<svg fill="none" height="51" viewBox="0 0 144 51" width="144" xmlns="http://www.w3.org/2000/svg" xmlns:xlink="http://www.w3.org/1999/xlink"><linearGradient id="a"><stop offset="0" stop-color="#00acf2"/><stop offset="1" stop-color="#b0d866"/></linearGradient><linearGradient id="b" gradientUnits="userSpaceOnUse" x1="3.07534" x2="97.0597" xlink:href="#a" y1="31.1755" y2="-39.9226"/><linearGradient id="c" gradientUnits="userSpaceOnUse" x1="12.6637" x2="45.4242" xlink:href="#a" y1="28.9824" y2="20.2643"/><clipPath id="d"><path d="m11.3828 7.39258h35.2885v35.261h-35.2885z"/></clipPath><rect height="47.6166" rx="23.8083" stroke="url(#b)" stroke-width="3" width="141" x="1.5" y="1.5"/><path d="m59.0645 26.5464-3.0395 9.0454h-2.1314l3.9844-10.6641h1.3623zm2.5415 9.0454-3.0542-9.0454-.1831-1.6187h1.3696l4.0064 10.6641zm-.1391-3.9624v1.5894h-5.7203v-1.5894zm4.9731-2.439v9.4483h-1.9409v-10.9717h1.7944zm5.0903 2.3584v.1538c0 .5762-.0683 1.1109-.205 1.604-.1319.4883-.3272.9156-.586 1.2818-.2588.3613-.581.6445-.9668.8496-.3808.2002-.8203.3003-1.3183.3003-.4883 0-.9131-.0928-1.2744-.2783-.3614-.1905-.6666-.459-.9156-.8057s-.4492-.7495-.6006-1.2085c-.1464-.4639-.2563-.9692-.3296-1.5161v-.4907c.0733-.5811.1832-1.1084.3296-1.5821.1514-.4785.3516-.8911.6006-1.2378.249-.3515.5518-.6225.9082-.8129.3614-.1905.7837-.2857 1.2671-.2857.5029 0 .9448.0952 1.3257.2857.3857.1904.7105.4638.9741.8203.2637.3564.4614.7812.5933 1.2744.1318.4931.1977 1.0425.1977 1.6479zm-1.9409.1538v-.1538c0-.3515-.0317-.6762-.0952-.9741-.0635-.3027-.1611-.5664-.293-.791-.1318-.2295-.3027-.4077-.5127-.5347-.2099-.1269-.4638-.1904-.7617-.1904-.2978 0-.5542.0488-.769.1465-.2149.0976-.3906.2368-.5274.4175-.1367.1806-.2441.3955-.3222.6445-.0733.2441-.1221.5151-.1465.813v1.2158c.0439.3613.1294.686.2563.9741.127.2881.3125.5176.5567.6885.249.1709.5713.2563.9668.2563.2978 0 .5517-.0659.7617-.1977s.3808-.3125.5127-.542c.1318-.2344.227-.5029.2856-.8057.0586-.3027.0879-.625.0879-.9668zm5.2881-2.5122v9.4483h-1.9409v-10.9717h1.7944zm5.0903 2.3584v.1538c0 .5762-.0683 1.1109-.205 1.604-.1319.4883-.3272.9156-.586 1.2818-.2588.3613-.581.6445-.9668.8496-.3808.2002-.8203.3003-1.3183.3003-.4883 0-.9131-.0928-1.2744-.2783-.3614-.1905-.6666-.459-.9156-.8057s-.4492-.7495-.6006-1.2085c-.1464-.4639-.2563-.9692-.3296-1.5161v-.4907c.0733-.5811.1832-1.1084.3296-1.5821.1514-.4785.3516-.8911.6006-1.2378.249-.3515.5518-.6225.9082-.8129.3614-.1905.7837-.2857 1.2671-.2857.5029 0 .9448.0952 1.3257.2857.3857.1904.7105.4638.9741.8203.2637.3564.4614.7812.5933 1.2744.1318.4931.1977 1.0425.1977 1.6479zm-1.9409.1538v-.1538c0-.3515-.0317-.6762-.0952-.9741-.0635-.3027-.1611-.5664-.293-.791-.1318-.2295-.3027-.4077-.5127-.5347-.2099-.1269-.4638-.1904-.7617-.1904-.2978 0-.5542.0488-.769.1465-.2149.0976-.3906.2368-.5274.4175-.1367.1806-.2441.3955-.3222.6445-.0733.2441-.1221.5151-.1465.813v1.2158c.0439.3613.1294.686.2563.9741.127.2881.3125.5176.5567.6885.249.1709.5713.2563.9668.2563.2978 0 .5517-.0659.7617-.1977s.3808-.3125.5127-.542c.1318-.2344.227-.5029.2856-.8057.0586-.3027.0879-.625.0879-.9668zm12.8174 1.1206c0-.205-.0317-.3881-.0952-.5493-.0586-.166-.1685-.3149-.3296-.4468-.1563-.1367-.3784-.2685-.6665-.3955-.2832-.1318-.6494-.2685-1.0986-.4101-.4981-.1563-.962-.332-1.3916-.5274-.4297-.1953-.8081-.4223-1.1353-.6811-.3223-.2588-.5737-.5567-.7544-.8936-.1807-.3418-.271-.7373-.271-1.1865 0-.4394.0928-.8398.2783-1.2012.1905-.3613.459-.6713.8057-.9301.3467-.2637.7544-.4663 1.2231-.6079.4737-.1416.9961-.2125 1.5674-.2125.791 0 1.4746.1441 2.0508.4322.5811.2881 1.0303.6787 1.3477 1.1719.3173.4931.476 1.0473.476 1.6626h-2.0068c0-.3321-.0708-.625-.2124-.879-.1367-.2539-.3467-.4541-.6299-.6005-.2783-.1465-.6299-.2198-1.0547-.2198-.4101 0-.7519.0611-1.0254.1831-.2685.1221-.4712.2881-.6079.4981-.1318.2099-.1977.4443-.1977.7031 0 .1953.0464.3711.1391.5274.0928.1513.232.2954.4175.4321.1856.1318.4151.2563.6885.3735.2783.1123.6006.2246.9668.3369.5859.1758 1.0986.3711 1.5381.586.4443.2148.813.459 1.1059.7324.2979.2734.5201.581.6665.9228.1514.3418.2271.73.2271 1.1646 0 .459-.0903.8691-.271 1.2305-.1807.3613-.4395.6689-.7764.9228s-.7422.4468-1.2158.5786c-.4687.1319-.9936.1978-1.5747.1978-.5176 0-1.0303-.0684-1.5381-.2051-.5029-.1416-.9595-.3516-1.3696-.6299-.4102-.2832-.7373-.6396-.9815-1.0693-.2441-.4346-.3662-.9424-.3662-1.5235h2.0215c0 .337.0537.625.1611.8643.1123.2344.2686.4273.4688.5786.2051.1465.4443.2539.7178.3223.2734.0683.5688.1025.8862.1025.4102 0 .7471-.0561 1.0107-.1684.2686-.1172.4688-.2784.6006-.4834.1367-.2051.2051-.4395.2051-.7032zm7.1777-5.1562v1.3916h-4.541v-1.3916zm-3.3252-1.9482h1.941v7.5878c0 .2344.0317.4151.0952.542.0635.127.1587.2124.2856.2564.127.0439.2783.0659.4541.0659.127 0 .2442-.0073.3516-.022.1074-.0146.1977-.0293.271-.0439l.0073 1.4502c-.1611.0537-.3442.0976-.5493.1318-.2002.0342-.4273.0513-.6812.0513-.4345 0-.8154-.0733-1.1425-.2197-.3272-.1514-.5811-.3931-.7618-.7251-.1806-.337-.271-.7813-.271-1.3331zm4.0796 5.9912v-.1538c0-.5811.083-1.1158.2491-1.6041.166-.4931.4077-.9204.7251-1.2817s.7054-.6421 1.1644-.8423c.459-.2051.982-.3076 1.567-.3076.596 0 1.124.1025 1.583.3076.463.2002.854.481 1.171.8423.318.3613.559.7886.725 1.2817.167.4883.25 1.023.25 1.6041v.1538c0 .5761-.083 1.1108-.25 1.604-.166.4882-.407.9155-.725 1.2817-.317.3613-.705.6421-1.164.8423s-.984.3003-1.575.3003c-.586 0-1.111-.1001-1.575-.3003-.463-.2002-.854-.481-1.1714-.8423-.3174-.3662-.5591-.7935-.7251-1.2817-.1661-.4932-.2491-1.0279-.2491-1.604zm1.9336-.1538v.1538c0 .3466.034.6713.103.9741.068.3027.173.5688.315.7983.141.2295.324.4102.549.542.229.127.503.1904.82.1904.313 0 .581-.0634.806-.1904.224-.1318.408-.3125.549-.542.147-.2295.254-.4956.322-.7983.069-.3028.103-.6275.103-.9741v-.1538c0-.3418-.034-.6617-.103-.9595-.068-.3028-.175-.5689-.322-.7984-.141-.2343-.327-.4174-.557-.5493-.224-.1367-.495-.2051-.813-.2051-.312 0-.581.0684-.805.2051-.225.1319-.408.315-.549.5493-.142.2295-.247.4956-.315.7984-.069.2978-.103.6177-.103.9595zm8.84-2.2706v6.3062h-1.933v-7.9248h1.831zm2.41-1.6699-.029 1.8018c-.108-.0196-.23-.0342-.366-.044-.132-.0097-.257-.0146-.374-.0146-.298 0-.559.0415-.784.1245-.224.0781-.412.1929-.564.3442-.146.1514-.258.337-.337.5567-.078.2148-.122.459-.131.7324l-.418-.0513c0-.5029.051-.9692.154-1.3989.102-.4297.251-.8057.447-1.1279.195-.3223.439-.5713.732-.7471.298-.1807.64-.271 1.025-.271.108 0 .223.0098.345.0293.127.0147.227.0366.3.0659zm4.475 8.1226c-.6 0-1.14-.0977-1.619-.293-.478-.1953-.886-.4663-1.223-.813-.332-.3515-.588-.7593-.769-1.2231-.176-.4688-.263-.9717-.263-1.5088v-.293c0-.6103.087-1.1645.263-1.6626.176-.5029.425-.935.747-1.2964.323-.3613.708-.6396 1.158-.8349.449-.1953.944-.293 1.486-.293.562 0 1.058.0952 1.487.2857.43.1855.789.4492 1.077.791s.505.7519.652 1.2304c.146.4737.219.9986.219 1.5747v.813h-6.21v-1.333h4.306v-.1465c-.01-.3076-.068-.5883-.176-.8422-.107-.2588-.273-.4639-.498-.6153-.224-.1562-.515-.2344-.871-.2344-.288 0-.54.0635-.755.1905-.21.122-.385.2978-.527.5273-.137.2246-.239.4932-.308.8057-.068.3125-.102.6592-.102 1.04v.293c0 .332.044.6396.132.9228.092.2832.227.5298.403.7398.18.2051.395.3662.644.4834.254.1123.542.1684.864.1684.406 0 .772-.0781 1.099-.2343.332-.1612.62-.398.864-.7105l.974 1.0108c-.166.2441-.39.4785-.674.7031-.278.2246-.615.4077-1.01.5493-.396.1367-.852.2051-1.37.2051z" fill="#000"/><path d="m54.0077 17.6392h.8437c-.0439.4043-.1596.7661-.3471 1.0854s-.4527.5728-.7954.7603c-.3428.1845-.7705.2768-1.2832.2768-.375 0-.7163-.0703-1.024-.2109-.3047-.1406-.5669-.3399-.7866-.5977-.2197-.2607-.3896-.5727-.5097-.936-.1172-.3662-.1758-.7734-.1758-1.2217v-.6372c0-.4482.0586-.854.1758-1.2173.1201-.3662.2915-.6797.5141-.9404.2256-.2608.4966-.4614.813-.6021.3164-.1406.6724-.2109 1.0679-.2109.4834 0 .8921.0908 1.226.2725.334.1816.5933.4336.7779.7558.1875.3194.3032.69.3471 1.1118h-.8437c-.041-.2988-.1172-.5551-.2285-.769-.1113-.2168-.2696-.3838-.4746-.501-.2051-.1172-.4732-.1758-.8042-.1758-.2842 0-.5347.0542-.7515.1626-.2139.1084-.394.2622-.5405.4615-.1436.1992-.252.4379-.3252.7163-.0733.2783-.1099.5874-.1099.9272v.646c0 .3135.0322.6079.0967.8833.0674.2754.1685.5171.3032.7251.1348.208.3062.3721.5142.4922.208.1172.4541.1758.7383.1758.3603 0 .6474-.0572.8613-.1714.2139-.1143.375-.2783.4834-.4922.1113-.2139.1904-.4702.2373-.769zm1.6611-.2901v-.1011c0-.3427.0498-.6606.1494-.9536.0997-.2959.2432-.5522.4307-.769.1875-.2197.4146-.3897.6812-.5098.2666-.123.5654-.1845.8964-.1845.334 0 .6343.0615.9009.1845.2696.1201.4981.2901.6856.5098.1904.2168.3354.4731.435.769.0996.293.1494.6109.1494.9536v.1011c0 .3428-.0498.6607-.1494.9536-.0996.293-.2446.5494-.435.7691-.1875.2168-.4146.3867-.6812.5097-.2637.1202-.5625.1802-.8965.1802s-.6342-.06-.9008-.1802c-.2666-.123-.4952-.2929-.6856-.5097-.1875-.2197-.331-.4761-.4307-.7691-.0996-.2929-.1494-.6108-.1494-.9536zm.813-.1011v.1011c0 .2373.0278.4614.0835.6724.0557.208.1392.3926.2505.5537.1143.1611.2563.2886.4263.3823.1699.0908.3676.1363.5932.1363.2227 0 .4175-.0455.5845-.1363.1699-.0937.3106-.2212.4219-.3823s.1948-.3457.2505-.5537c.0586-.211.0879-.4351.0879-.6724v-.1011c0-.2343-.0293-.4555-.0879-.6635-.0557-.211-.1407-.397-.2549-.5581-.1113-.1641-.252-.293-.4219-.3868-.167-.0937-.3633-.1406-.5889-.1406-.2226 0-.4189.0469-.5888.1406-.167.0938-.3076.2227-.4219.3868-.1113.1611-.1948.3471-.2505.5581-.0557.208-.0835.4292-.0835.6635zm5.3438-1.3842v3.81h-.8174v-4.7549h.7734zm-.167 1.2524-.378-.0132c.003-.3252.0455-.6255.1275-.9009.082-.2783.2036-.52.3647-.725.1612-.2051.3618-.3633.6021-.4747.2402-.1142.5185-.1713.8349-.1713.2227 0 .4278.0322.6153.0966.1875.0616.3501.1597.4878.2945.1377.1347.2446.3076.3208.5185.0761.211.1142.4658.1142.7647v3.1684h-.813v-3.1289c0-.249-.0424-.4482-.1274-.5976-.082-.1494-.1992-.2578-.3516-.3252-.1523-.0703-.331-.1055-.5361-.1055-.2402 0-.4409.0425-.602.1274-.1612.085-.2901.2022-.3868.3516-.0966.1494-.167.3208-.2109.5142-.041.1904-.0615.3925-.0615.6064zm3.0805-.4482-.5449.167c.0029-.2608.0454-.5113.1275-.7515.0849-.2402.2065-.4541.3647-.6416.1611-.1875.3589-.3355.5933-.4439.2343-.1113.5024-.1669.8042-.1669.2548 0 .4804.0336.6767.101.1992.0674.3662.1714.501.312.1377.1377.2417.315.312.5318s.1055.4746.1055.7734v3.1245h-.8174v-3.1333c0-.2666-.0425-.4731-.1274-.6196-.0821-.1494-.1993-.2534-.3516-.312-.1494-.0615-.3281-.0923-.5361-.0923-.1787 0-.337.0308-.4746.0923-.1377.0615-.2535.1465-.3472.2549-.0938.1054-.1655.227-.2153.3647-.0469.1377-.0704.2842-.0704.4395zm5.0538-1.7491v4.7549h-.8174v-4.7549zm-.879-1.2612c0-.1318.0396-.2431.1187-.334.082-.0908.2021-.1362.3603-.1362.1553 0 .274.0454.356.1362.085.0909.1274.2022.1274.334 0 .126-.0424.2344-.1274.3252-.082.0879-.2007.1318-.356.1318-.1582 0-.2783-.0439-.3603-.1318-.0791-.0908-.1187-.1992-.1187-.3252zm2.9971 2.2764v3.7397h-.813v-4.7549h.7691zm-.1933 1.1821-.3384-.0132c.0029-.3252.0512-.6255.145-.9009.0937-.2783.2256-.52.3955-.725.1699-.2051.3721-.3633.6064-.4747.2374-.1142.4996-.1713.7867-.1713.2343 0 .4453.0322.6328.0966.1875.0616.3472.1612.479.2989.1348.1377.2373.3164.3076.5361.0703.2168.1055.4819.1055.7954v3.1157h-.8174v-3.1245c0-.249-.0366-.4482-.1099-.5976-.0732-.1524-.1801-.2622-.3208-.3296-.1406-.0703-.3135-.1055-.5185-.1055-.2022 0-.3867.0425-.5537.1274-.1641.085-.3062.2022-.4263.3516-.1172.1494-.2095.3208-.2769.5142-.0644.1904-.0966.3925-.0966.6064zm7.4355-2.1973h.7383v4.6539c0 .4189-.085.7763-.2549 1.0722s-.4072.52-.7119.6724c-.3018.1553-.6504.2329-1.0459.2329-.1641 0-.3574-.0264-.5801-.0791-.2197-.0498-.4365-.1362-.6504-.2593-.2109-.1201-.3882-.2827-.5317-.4878l.4263-.4834c.1992.2403.4072.4072.624.501.2197.0937.4365.1406.6504.1406.2578 0 .4804-.0483.6679-.145s.3326-.2402.4351-.4307c.1055-.1875.1582-.4189.1582-.6943v-3.6475zm-3.2739 2.4302v-.0923c0-.3632.0425-.6928.1274-.9887.0879-.2989.2124-.5552.3736-.7691.164-.2138.3618-.3779.5932-.4922.2315-.1172.4922-.1757.7822-.1757.2989 0 .5596.0527.7823.1582.2256.1025.416.2534.5713.4526.1582.1963.2827.4336.3735.7119s.1538.5933.189.9448v.4043c-.0323.3487-.0953.6621-.189.9405-.0908.2783-.2153.5156-.3735.7119-.1553.1963-.3457.3471-.5713.4526-.2256.1025-.4893.1538-.791.1538-.2842 0-.542-.06-.7735-.1802-.2285-.1201-.4248-.2885-.5889-.5053-.164-.2168-.29-.4717-.3779-.7647-.0849-.2959-.1274-.6167-.1274-.9624zm.813-.0923v.0923c0 .2373.0234.46.0703.668.0498.208.1245.3911.2241.5493.1025.1582.2329.2827.3911.3735.1582.0879.3472.1319.5669.1319.2695 0 .4922-.0572.668-.1714.1758-.1143.3149-.2651.4175-.4526.1054-.1875.1875-.3912.246-.6109v-1.0591c-.0322-.1611-.082-.3164-.1494-.4658-.0644-.1523-.1494-.2871-.2548-.4043-.1026-.1201-.23-.2153-.3824-.2856-.1523-.0703-.331-.1055-.5361-.1055-.2227 0-.4146.0469-.5757.1406-.1582.0908-.2886.2168-.3911.378-.0996.1582-.1743.3427-.2241.5537-.0469.208-.0703.4306-.0703.6679zm9.435 1.1558c0-.1172-.0263-.2256-.0791-.3252-.0498-.1025-.1538-.1948-.312-.2769-.1553-.0849-.3896-.1582-.7031-.2197-.2637-.0556-.5025-.1216-.7163-.1977-.211-.0762-.3911-.1685-.5406-.2769-.1464-.1084-.2592-.2358-.3383-.3823s-.1187-.3179-.1187-.5142c0-.1875.041-.3647.1231-.5317.0849-.167.2036-.315.3559-.4439.1553-.1289.3413-.2299.5581-.3032.2168-.0732.4585-.1098.7251-.1098.3809 0 .7061.0673.9756.2021s.4761.3149.6196.5405c.1436.2227.2154.4702.2154.7427h-.813c0-.1318-.0396-.2593-.1187-.3823-.0761-.126-.1889-.23-.3383-.312-.1465-.0821-.3267-.1231-.5406-.1231-.2256 0-.4087.0352-.5493.1055-.1377.0674-.2388.1538-.3032.2593-.0615.1054-.0923.2168-.0923.334 0 .0878.0146.1669.0439.2373.0323.0673.0879.1303.167.1889.0791.0557.1905.1084.334.1582.1436.0498.3267.0996.5493.1494.3897.0879.7105.1934.9624.3164.252.1231.4395.274.5625.4527.1231.1787.1846.3955.1846.6504 0 .208-.0439.3984-.1318.5713-.085.1728-.2095.3222-.3736.4482-.1611.1231-.3545.2197-.58.29-.2227.0674-.4732.1011-.7515.1011-.4189 0-.7734-.0747-1.0635-.2241-.29-.1494-.5097-.3428-.6592-.5801-.1494-.2373-.2241-.4878-.2241-.7514h.8174c.0117.2226.0762.3999.1934.5317.1171.1289.2607.2212.4306.2768.1699.0528.3384.0792.5054.0792.2227 0 .4087-.0293.5581-.0879.1523-.0586.2681-.1392.3472-.2417.0791-.1026.1186-.2198.1186-.3516zm1.6656-1.0635v-.1011c0-.3427.0498-.6606.1494-.9536.0996-.2959.2431-.5522.4306-.769.1875-.2197.4146-.3897.6812-.5098.2666-.123.5654-.1845.8965-.1845.3339 0 .6342.0615.9008.1845.2696.1201.4981.2901.6856.5098.1904.2168.3354.4731.435.769.0997.293.1495.6109.1495.9536v.1011c0 .3428-.0498.6607-.1495.9536-.0996.293-.2446.5494-.435.7691-.1875.2168-.4146.3867-.6812.5097-.2636.1202-.5625.1802-.8964.1802-.334 0-.6343-.06-.9009-.1802-.2666-.123-.4951-.2929-.6856-.5097-.1875-.2197-.331-.4761-.4306-.7691-.0996-.2929-.1494-.6108-.1494-.9536zm.8129-.1011v.1011c0 .2373.0279.4614.0835.6724.0557.208.1392.3926.2505.5537.1143.1611.2564.2886.4263.3823.1699.0908.3677.1363.5933.1363.2226 0 .4174-.0455.5844-.1363.1699-.0937.3106-.2212.4219-.3823s.1948-.3457.2505-.5537c.0586-.211.0879-.4351.0879-.6724v-.1011c0-.2343-.0293-.4555-.0879-.6635-.0557-.211-.1406-.397-.2549-.5581-.1113-.1641-.2519-.293-.4219-.3868-.167-.0937-.3632-.1406-.5888-.1406-.2227 0-.419.0469-.5889.1406-.167.0938-.3076.2227-.4219.3868-.1113.1611-.1948.3471-.2505.5581-.0556.208-.0835.4292-.0835.6635zm4.3199.1011v-.1011c0-.3427.0498-.6606.1494-.9536.0996-.2959.2431-.5522.4306-.769.1875-.2197.4146-.3897.6812-.5098.2666-.123.5654-.1845.8965-.1845.334 0 .6343.0615.9009.1845.2695.1201.498.2901.6855.5098.1904.2168.3355.4731.4351.769.0996.293.1494.6109.1494.9536v.1011c0 .3428-.0498.6607-.1494.9536-.0996.293-.2447.5494-.4351.7691-.1875.2168-.4145.3867-.6811.5097-.2637.1202-.5625.1802-.8965.1802s-.6343-.06-.9009-.1802c-.2666-.123-.4951-.2929-.6856-.5097-.1875-.2197-.331-.4761-.4306-.7691-.0996-.2929-.1494-.6108-.1494-.9536zm.813-.1011v.1011c0 .2373.0278.4614.0834.6724.0557.208.1392.3926.2505.5537.1143.1611.2564.2886.4263.3823.1699.0908.3677.1363.5933.1363.2226 0 .4174-.0455.5844-.1363.17-.0937.3106-.2212.4219-.3823s.1948-.3457.2505-.5537c.0586-.211.0879-.4351.0879-.6724v-.1011c0-.2343-.0293-.4555-.0879-.6635-.0557-.211-.1406-.397-.2549-.5581-.1113-.1641-.2519-.293-.4219-.3868-.1669-.0937-.3632-.1406-.5888-.1406-.2227 0-.419.0469-.5889.1406-.167.0938-.3076.2227-.4219.3868-.1113.1611-.1948.3471-.2505.5581-.0556.208-.0834.4292-.0834.6635zm5.3481-1.3139v3.7397h-.813v-4.7549h.7691zm-.1934 1.1821-.3383-.0132c.0029-.3252.0512-.6255.145-.9009.0937-.2783.2256-.52.3955-.725.1699-.2051.3721-.3633.6064-.4747.2373-.1142.5-.1713.787-.1713.234 0 .445.0322.632.0966.188.0616.348.1612.479.2989.135.1377.238.3164.308.5361.07.2168.106.4819.106.7954v3.1157h-.818v-3.1245c0-.249-.036-.4482-.11-.5976-.073-.1524-.18-.2622-.32-.3296-.141-.0703-.314-.1055-.519-.1055-.202 0-.3868.0425-.5538.1274-.164.085-.3061.2022-.4262.3516-.1172.1494-.2095.3208-.2769.5142-.0644.1904-.0967.3925-.0967.6064zm8.5786-2.1973v.6241h-2.571v-.6241zm-1.701-1.1557h.813v4.7329c0 .1611.025.2827.075.3647.049.0821.114.1363.193.1626.079.0264.164.0396.255.0396.067 0 .138-.0059.211-.0176.076-.0146.133-.0264.171-.0351l.005.6635c-.065.0205-.15.0396-.255.0572-.103.0205-.227.0307-.374.0307-.199 0-.382-.0395-.549-.1186s-.3-.211-.4-.3955c-.097-.1875-.145-.4395-.145-.7559zm2.351 3.5859v-.1011c0-.3427.05-.6606.149-.9536.1-.2959.244-.5522.431-.769.188-.2197.415-.3897.681-.5098.267-.123.566-.1845.897-.1845.334 0 .634.0615.901.1845.269.1201.498.2901.685.5098.191.2168.336.4731.435.769.1.293.15.6109.15.9536v.1011c0 .3428-.05.6607-.15.9536-.099.293-.244.5494-.435.7691-.187.2168-.414.3867-.681.5097-.264.1202-.563.1802-.897.1802s-.634-.06-.9-.1802c-.267-.123-.496-.2929-.686-.5097-.187-.2197-.331-.4761-.431-.7691-.099-.2929-.149-.6108-.149-.9536zm.813-.1011v.1011c0 .2373.028.4614.083.6724.056.208.14.3926.251.5537.114.1611.256.2886.426.3823.17.0908.368.1363.593.1363.223 0 .418-.0455.585-.1363.17-.0937.31-.2212.422-.3823.111-.1611.195-.3457.25-.5537.059-.211.088-.4351.088-.6724v-.1011c0-.2343-.029-.4555-.088-.6635-.055-.211-.14-.397-.255-.5581-.111-.1641-.252-.293-.421-.3868-.167-.0937-.364-.1406-.589-.1406-.223 0-.419.0469-.589.1406-.167.0938-.308.2227-.422.3868-.111.1611-.195.3471-.251.5581-.055.208-.083.4292-.083.6635zm8.758-2.3291v.6241h-2.571v-.6241zm-1.7-1.1557h.813v4.7329c0 .1611.024.2827.074.3647.05.0821.115.1363.194.1626.079.0264.164.0396.254.0396.068 0 .138-.0059.211-.0176.077-.0146.134-.0264.172-.0351l.004.6635c-.064.0205-.149.0396-.255.0572-.102.0205-.227.0307-.373.0307-.199 0-.383-.0395-.55-.1186s-.3-.211-.399-.3955c-.097-.1875-.145-.4395-.145-.7559zm3.467-.8394v6.75h-.813v-6.75zm-.194 4.1924-.338-.0132c.003-.3252.051-.6255.145-.9009.094-.2783.226-.52.396-.725.17-.2051.372-.3633.606-.4747.237-.1142.5-.1713.787-.1713.234 0 .445.0322.633.0966.187.0616.347.1612.479.2989.134.1377.237.3164.307.5361.07.2168.106.4819.106.7954v3.1157h-.818v-3.1245c0-.249-.036-.4482-.11-.5976-.073-.1524-.18-.2622-.32-.3296-.141-.0703-.314-.1055-.519-.1055-.202 0-.387.0425-.554.1274-.164.085-.306.2022-.426.3516-.117.1494-.209.3208-.277.5142-.064.1904-.097.3925-.097.6064zm6.311 2.6455c-.331 0-.631-.0556-.901-.167-.266-.1142-.496-.2739-.69-.479-.19-.2051-.337-.4482-.439-.7295-.103-.2812-.154-.5888-.154-.9228v-.1846c0-.3867.057-.7309.171-1.0327.115-.3047.27-.5625.466-.7734.196-.211.419-.3706.668-.479s.507-.1626.774-.1626c.339 0 .632.0585.878.1757.249.1172.453.2813.611.4922.159.208.276.4541.352.7383.076.2813.114.5889.114.9229v.3647h-3.551v-.6636h2.738v-.0615c-.012-.2109-.056-.416-.132-.6152-.073-.1992-.19-.3633-.351-.4922s-.381-.1934-.659-.1934c-.185 0-.355.0396-.51.1187-.155.0761-.289.1904-.4.3427-.111.1524-.198.3384-.259.5582-.062.2197-.093.4731-.093.7602v.1846c0 .2256.031.438.093.6372.064.1963.156.3691.276.5185.124.1495.271.2666.444.3516.176.085.375.1274.598.1274.287 0 .53-.0585.729-.1757.2-.1172.374-.274.523-.4703l.493.3912c-.103.1552-.233.3032-.392.4438-.158.1406-.353.2549-.584.3428-.229.0879-.499.1318-.813.1318z" fill="#000"/><g clip-path="url(#d)"><path d="m29.0196 15.7187.6272-1.0813c.386-.6749 1.2475-.9021 1.9229-.5165.6755.3857.9029 1.2466.517 1.9215l-6.0308 10.4336h4.3628c1.4129 0 2.2056 1.6598 1.5921 2.8099h-12.7852c-.7788 0-1.406-.6267-1.406-1.4049s.6272-1.405 1.406-1.405h3.584l4.5903-7.9475-1.4336-2.4861c-.386-.6749-.1585-1.5289.5169-1.9215.6755-.3856 1.5301-.1584 1.923.5165zm-5.4242 15.0135-1.3509 2.3415c-.386.6749-1.2475.9022-1.923.5165-.6754-.3856-.9029-1.2465-.5169-1.9214l1.0063-1.7355c1.1303-.3513 2.0539-.0827 2.7845.7989zm11.641-4.2493h3.6598c.7789 0 1.4061.6267 1.4061 1.405 0 .7782-.6272 1.4049-1.4061 1.4049h-2.0332l1.3716 2.376c.386.6749.1585 1.5289-.5169 1.9214-.6755.3857-1.5301.1584-1.923-.5165-2.3089-4.0013-4.0458-6.9971-5.1968-8.9943-1.1786-2.0316-.3377-4.0702.4963-4.7589.9235 1.584 2.302 3.9738 4.1422 7.1624zm-6.2099-18.53954c-9.4425 0-17.0929 7.64444-17.0929 17.07954s7.6504 17.0796 17.0929 17.0796c9.4424 0 17.0929-7.6445 17.0929-17.0796s-7.6505-17.07954-17.0929-17.07954zm14.8873 17.07954c0 8.1748-6.6235 14.8757-14.8873 14.8757-8.1812 0-14.8874-6.6183-14.8874-14.8757 0-8.1748 6.6235-14.8757 14.8874-14.8757 8.1811 0 14.8873 6.6183 14.8873 14.8757z" fill="url(#c)"/></g></svg>