<svg fill="none" height="20" viewBox="0 0 22 20" width="22" xmlns="http://www.w3.org/2000/svg"><path d="m13.563 19.5416h-.231c-.4656-.0513-.9043-.2662-1.2524-.6134-.3482-.3471-.5876-.8086-.6836-1.3172l-2.948-15.17641-3.036 7.82031c-.08587.2186-.22745.4045-.40728.5348-.17982.1303-.39003.1992-.60472.1984h-3.3c-.291738 0-.571528-.1287-.777817-.3579-.206291-.2292-.322183-.54-.322183-.86403 0-.32408.115892-.63488.322183-.86404.206289-.22915.486079-.35789.777817-.35789h2.574l2.761-7.07497c.18586-.474771.50265-.871706.90468-1.133577.40204-.2618706.86856-.3751477 1.33229-.3234985s.90071.2655565 1.24795.6108795c.34718.345323.58678.804216.68408 1.310526l2.948 15.1641 3.036-7.79586c.0825-.22315.2227-.41417.4028-.54899.18-.13482.392-.20741.6092-.20861h3.3c.2917 0 .5715.12874.7778.35789.2063.22916.3222.53996.3222.86404 0 .32403-.1159.63483-.3222.86403s-.4861.3579-.7778.3579h-2.574l-2.761 7.075c-.1686.4356-.4476.8073-.8031 1.0699-.3555.2625-.772.4045-1.1989.4086z" fill="#56db40"/></svg>