<svg fill="none" height="24" viewBox="0 0 24 24" width="24" xmlns="http://www.w3.org/2000/svg"><path d="m16.5672 9.37505-1.4522-2.71195-2.8462-.9487-.0065.02025-4.42347 1.26384c-.31291.09045-.58806.27988-.78421.53991-.19616.26003-.30273.57663-.30376.90234v3.93436h1.5v-3.93431l3.45004-.98569-1.524 4.6703-.0073-.0026-1.38113 3.8672c-.06683.184-.20265.3349-.37873.4207-.17608.0857-.3786.0996-.56472.0386l-3.10697-1.0358-.47438 1.4231 3.10697 1.0356c.55821.186 1.16709.146 1.69613-.1116.52904-.2575.93613-.712 1.13413-1.2661l1.1358-3.1804.805.2625 2.2641 2.264c.07.0695.1254.1522.1632.2433s.0571.1889.0569.2875v5.0037h1.5v-5.0037c.0007-.2956-.0571-.5884-.1702-.8615s-.2793-.5211-.4889-.7296l-2.2624-2.2623 1.2555-3.84738.9032 1.62578c.0975.1753.24.3214.4129.4232.1729.1017.3699.1554.5705.1555h3.9044v-1.50005zm-3.1213-4.23248c.2947.2462.6644.38457 1.0483.39225s.7589-.11578 1.0632-.34999c.3042-.23422.5195-.56519.6103-.93827.0907-.37307.0515-.76595-.1111-1.11375-.1627-.34781-.4391-.62975-.7836-.79927s-.7365-.21649-1.1113-.13315-.71.29201-.9502.59154c-.2402.29954-.3711.67204-.371 1.056-.0005.24703.0536.49112.1582.71489.1047.22377.2574.42172.4472.57975z" fill="#173175"/></svg>