<svg fill="none" height="17" viewBox="0 0 16 17" width="16" xmlns="http://www.w3.org/2000/svg"><path d="m14.1208 4.67538c-.2029-.4792-.4953-.91346-.8611-1.27844-.366-.36608-.7976-.657-1.2712-.85693-.4911-.20815-1.0179-.31469-1.5497-.31344-.74606 0-1.47398.20845-2.10656.60217-.15133.09418-.2951.19763-.4313.31035-.1362-.11272-.27997-.21617-.43131-.31035-.63257-.39372-1.36049-.60217-2.10657-.60217-.53724 0-1.05783.105-1.54967.31344-.47519.20072-.90347.48945-1.27121.85693-.36624.36457-.65879.79893-.8611 1.27844-.21035.49872-.3178 1.02831-.3178 1.57335 0 .51416.10291 1.04993.30721 1.59497.17101.45548.41617.92795.72943 1.40505.49638.75505 1.1789 1.54245 2.02637 2.34075 1.40439 1.3232 2.79516 2.2373 2.85418 2.2743l.35866.2347c.1589.1035.3632.1035.5221 0l.35867-.2347c.05902-.0386 1.44827-.9511 2.8542-2.2743.8474-.7983 1.53-1.5857 2.0263-2.34075.3133-.4771.56-.94957.7295-1.40505.2043-.54504.3072-1.08081.3072-1.59497.0015-.54504-.106-1.07463-.3163-1.57335z" fill="#ff0505"/></svg>