<svg fill="none" height="18" viewBox="0 0 18 18" width="18" xmlns="http://www.w3.org/2000/svg" xmlns:xlink="http://www.w3.org/1999/xlink"><clipPath id="a"><path d="m0 0h18v18h-18z"/></clipPath><g clip-path="url(#a)"><path d="m1.86037 0c-.30831 0-.604.122477-.82201.340488-.218008.218011-.340485.513698-.340485.822012 0 .30831.122477.604.340485.82201.21801.21801.5137.34049.82201.34049.30832 0 .60401-.12248.82202-.34049s.34049-.5137.34049-.82201c0-.308314-.12248-.604001-.34049-.822012s-.5137-.340488-.82202-.340488zm14.28003 0c-.3084 0-.6042.122517-.8223.340598-.2181.218082-.3406.513863-.3406.822282 0 .30841.1225.60419.3406.82227s.5139.3406.8223.3406.6042-.12252.8223-.3406c.218-.21808.3405-.51386.3405-.82227 0-.308419-.1225-.6042-.3405-.822282-.2181-.218081-.5139-.340598-.8223-.340598zm-7.14003 1.72125c-.30831 0-.604.12248-.82201.34049s-.34049.5137-.34049.82201.12248.604.34049.82201.5137.34049.82201.34049c.30832 0 .604-.12248.82202-.34049.21801-.21801.34051-.5137.34051-.82201s-.1225-.604-.34051-.82201c-.21802-.21801-.5137-.34049-.82202-.34049zm-7.14 2.23275c-.4933 0-.966396.19596-1.315214.54478-.348817.34882-.54478096.82192-.54478096 1.31522s.19596396.9664.54478096 1.31522c.348818.34882.821914.54478 1.315214.54478.49331 0 .96641-.19596 1.31522-.54478.34882-.34882.54478-.82192.54478-1.31522s-.19596-.9664-.54478-1.31522c-.34881-.34882-.82191-.54478-1.31522-.54478zm14.28003 0c-.4933 0-.9664.19596-1.3152.54478-.3489.34882-.5448.82192-.5448 1.31522s.1959.9664.5448 1.31522c.3488.34882.8219.54478 1.3152.54478s.9664-.19596 1.3152-.54478.5448-.82192.5448-1.31522-.196-.9664-.5448-1.31522-.8219-.54478-1.3152-.54478zm-7.14003 2.418c-.30831 0-.604.12248-.82201.34049s-.34049.5137-.34049.82201.12248.604.34049.82201.5137.34049.82201.34049c.30832 0 .604-.12248.82202-.34049.21801-.21801.34051-.5137.34051-.82201s-.1225-.604-.34051-.82201c-.21802-.21801-.5137-.34049-.82202-.34049zm-7.14 2.93025c-.30831 0-.604.12248-.82201.34049-.218008.21801-.340485.51366-.340485.82206 0 .3083.122477.604.340485.822.21801.218.5137.3405.82201.3405.30832 0 .60401-.1225.82202-.3405s.34049-.5137.34049-.822c0-.3084-.12248-.60405-.34049-.82206s-.5137-.34049-.82202-.34049zm14.28003 0c-.3085 0-.6044.12256-.8226.34071-.2181.21815-.3407.51404-.3407.82254s.1226.6044.3407.8225c.2182.2182.5141.3407.8226.3407s.6044-.1225.8225-.3407c.2182-.2181.3407-.514.3407-.8225s-.1225-.60439-.3407-.82254c-.2181-.21815-.514-.34071-.8225-.34071zm-7.14003 1.02305c-.4935-.0001-.96679.196-1.31574.545-.34896.3489-.54501.8222-.54501 1.3157s.19605.9668.54501 1.3157c.34895.349.82224.5451 1.31574.5451.49351 0 .96679-.1961 1.31573-.5451.349-.3489.545-.8222.545-1.3157s-.196-.9668-.545-1.3157c-.34894-.349-.82222-.545-1.31573-.545zm-7.14 2.9302c-.4935.0001-.966746.1962-1.315634.5453-.348888.349-.54483542.8223-.54473596 1.3158.00009945.4935.19623796.9668.54526596 1.3157.349029.3489.822354.5448 1.315854.5447.49351 0 .9668-.196 1.31575-.545.34896-.349.545-.8222.545-1.3157 0-.4936-.19604-.9668-.545-1.3158-.34895-.349-.82224-.545-1.31575-.545zm14.28003.6975c-.3085 0-.6044.1226-.8226.3407-.2181.2182-.3407.514-.3407.8226 0 .3085.1226.6043.3407.8225.2182.2181.5141.3407.8226.3407.3084 0 .6042-.1225.8223-.3406.218-.2181.3405-.5139.3405-.8223s-.1225-.6042-.3405-.8223c-.2181-.218-.5139-.3406-.8223-.3406zm-7.14003 1.722c-.30831 0-.604.1225-.82201.3405s-.34049.5137-.34049.822.12248.604.34049.822.5137.3405.82201.3405c.30832 0 .604-.1225.82202-.3405.21801-.218.34051-.5137.34051-.822s-.1225-.604-.34051-.822c-.21802-.218-.5137-.3405-.82202-.3405z" fill="#da5050"/></g></svg>