<svg fill="none" height="40" viewBox="0 0 49 40" width="49" xmlns="http://www.w3.org/2000/svg" xmlns:xlink="http://www.w3.org/1999/xlink"><clipPath id="a"><path d="m.431641.335938h47.7004v39.5564h-47.7004z"/></clipPath><g clip-path="url(#a)" fill="#000" stroke="#000" stroke-miterlimit="10"><path d="m45.3426 18.1338c-.8646-1.5638-1.9453-3.5088-4.0804-3.5088-2.1352 0-3.2158 1.945-4.0804 3.5088-.8907 1.6033-1.4933 2.5824-2.6656 2.5824-1.1724 0-1.7815-.9791-2.6657-2.5824-.8646-1.5638-1.9452-3.5022-4.0804-3.5022-2.1351 0-3.2158 1.9449-4.0804 3.5022-.8907 1.6033-1.4933 2.5824-2.6656 2.5824-1.1724 0-1.7815-.9791-2.6657-2.5824-.8645-1.5638-1.9452-3.5022-4.0804-3.5022-2.1351 0-3.2158 1.9449-4.0803 3.5022-.89077 1.6033-1.49333 2.5824-2.67225 2.5824s-1.78148-.9791-2.67221-2.5824c-.87764-1.5638-1.95832-3.5088-4.093474-3.5088v2.129c1.178914 0 1.781474.979 2.672214 2.5823.86454 1.5638 1.94522 3.5022 4.08037 3.5022 2.13516 0 3.21585-1.9449 4.08035-3.5022.8908-1.6033 1.4933-2.5823 2.6722-2.5823 1.179 0 1.7815.979 2.6657 2.5823.8645 1.5638 1.9452 3.5088 4.0804 3.5088 2.1351 0 3.2158-1.945 4.0804-3.5088.8907-1.6033 1.4932-2.5823 2.6656-2.5823s1.7815.979 2.6657 2.5823c.8645 1.5638 1.9452 3.5088 4.0804 3.5088 2.1351 0 3.2158-1.945 4.0803-3.5022.8908-1.6033 1.4933-2.5824 2.6657-2.5824s1.7815.9791 2.6657 2.5824c.8383 1.5113 1.8731 3.3708 3.8773 3.4956v-2.142c-1.0414-.1118-1.6308-1.058-2.4626-2.5627z"/><path d="m45.3412 29.0284c-.8645-1.5639-1.9452-3.5089-4.0804-3.5089-2.1351 0-3.2158 1.945-4.0804 3.5089-.8907 1.6032-1.4933 2.5823-2.6656 2.5823-1.1724 0-1.7815-.9791-2.6657-2.5823-.8645-1.5639-1.9452-3.5023-4.0804-3.5023-2.1351 0-3.2158 1.945-4.0803 3.5023-.8908 1.6032-1.4933 2.5823-2.6657 2.5823s-1.7815-.9791-2.6657-2.5823c-.8645-1.5639-1.9452-3.5023-4.0803-3.5023-2.1352 0-3.2159 1.945-4.0804 3.5023-.89075 1.6032-1.49331 2.5823-2.67223 2.5823s-1.78148-.9791-2.67221-2.5823c-.86455-1.5639-1.94522-3.5023-4.080376-3.5023v2.129c1.178916 0 1.781476.979 2.672216 2.5823.86454 1.5638 1.94522 3.5022 4.08037 3.5022 2.13516 0 3.21583-1.9449 4.08033-3.5022.8908-1.6033 1.4933-2.5823 2.6723-2.5823 1.1789 0 1.7814.979 2.6656 2.5823.8646 1.5638 1.9452 3.5088 4.0804 3.5088s3.2158-1.945 4.0804-3.5088c.8907-1.6033 1.4933-2.5823 2.6656-2.5823 1.1724 0 1.7815.979 2.6657 2.5823.8646 1.5638 1.9452 3.5088 4.0804 3.5088 2.1351 0 3.2158-1.945 4.0803-3.5022.8908-1.6033 1.4933-2.5824 2.6657-2.5824s1.7815.9791 2.6657 2.5824c.8383 1.5113 1.8732 3.3708 3.8773 3.4956v-2.142c-1.0414-.1118-1.6308-1.058-2.4626-2.5627z"/></g></svg>