<svg fill="none" height="21" viewBox="0 0 26 21" width="26" xmlns="http://www.w3.org/2000/svg"><g fill="#000"><path d="m24.3795 0h-23.3795v2.52466h23.3795z"/><path d="m3.22592 14.5188c-.10278 0-.20556-.0161-.31156-.0321-.10278-.0225-.20556-.0547-.30192-.0964-.09635-.0386-.18308-.0867-.2698-.1445-.08672-.0546-.16702-.1253-.24731-.1992-.2955-.2955-.46252-.7066-.46252-1.121 0-.1028.00643-.2152.03212-.3116.01606-.1027.04818-.2055.08672-.3019.03855-.0964.08672-.1895.15096-.2698.0546-.0867.11884-.1735.18951-.2473.08029-.0707.15738-.1349.24731-.1992.08672-.0546.17344-.1028.2698-.1413s.19914-.0707.30192-.0867c.51712-.1028 1.06635.0642 1.4293.4304.07066.0707.14453.1606.19914.2473.0546.0803.11241.1735.15096.2698.03854.0964.07066.1992.08672.302.02248.0963.03212.2055.03212.3115 0 .4144-.16702.8255-.46894 1.121-.29228.2955-.70662.469-1.12096.469z"/><path d="m12.7904 14.5188c-.1028 0-.2056-.0161-.3116-.0321-.1028-.0225-.2055-.0547-.3019-.0964-.0964-.0386-.1831-.0867-.2698-.1445-.0867-.0546-.167-.1253-.2473-.1992-.2955-.2955-.4625-.7066-.4625-1.121 0-.1028.0064-.2152.0321-.3116.016-.1027.0482-.2055.0867-.3019s.0867-.1895.151-.2698c.0546-.0867.1188-.1735.1895-.2473.0803-.0707.1574-.1349.2473-.1992.0867-.0546.1734-.1028.2698-.1413.0963-.0385.1991-.0707.3019-.0867.5171-.1028 1.0664.0642 1.4293.4304.0707.0707.1445.1606.1991.2473.0546.0803.1125.1735.151.2698.0385.0964.0707.1992.0867.302.0225.0963.0321.2055.0321.3115 0 .4144-.167.8255-.4689 1.121-.2923.2955-.7066.469-1.121.469z"/><path d="m22.3587 14.5188c-.1028 0-.2055-.0161-.3115-.0321-.1028-.0225-.2056-.0547-.3019-.0964-.0964-.0386-.1831-.0867-.2698-.1445-.0868-.0546-.1671-.1253-.2474-.1992-.2955-.2955-.4625-.7066-.4625-1.121 0-.1028.0064-.2152.0321-.3116.0161-.1027.0482-.2055.0868-.3019.0385-.0964.0867-.1895.1509-.2698.0546-.0867.1189-.1735.1895-.2473.0803-.0707.1574-.1349.2473-.1992.0868-.0546.1735-.1028.2698-.1413.0964-.0385.1992-.0707.302-.0867.5171-.1028 1.0663.0642 1.4293.4304.0706.0707.1445.1606.1991.2473.0546.0803.1124.1735.151.2698.0385.0964.0706.1992.0867.302.0225.0963.0321.2055.0321.3115 0 .4144-.167.8255-.4689 1.121-.2923.2955-.7067.469-1.121.469z"/><path d="m18.1751 20.4993c-.1027 0-.2055-.0161-.3115-.0322-.1028-.0225-.2056-.0546-.3019-.0963-.0964-.0386-.1831-.0868-.2698-.1446-.0868-.0546-.1671-.1252-.2474-.1991-.2954-.2955-.4625-.7067-.4625-1.121 0-.1028.0065-.2152.0322-.3116.016-.1028.0481-.2056.0867-.3019.0385-.0964.0867-.1895.1509-.2698.0546-.0868.1189-.1735.1895-.2474.0803-.0706.1574-.1349.2474-.1991.0867-.0546.1734-.1028.2698-.1413.0963-.0386.1991-.0707.3019-.0868.5171-.1028 1.0663.0643 1.4293.4305.0706.0706.1445.1605.1991.2473.0546.0803.1124.1734.151.2698.0385.0964.0706.1991.0867.3019.0225.0964.0321.2056.0321.3116 0 .4143-.167.8255-.4689 1.121-.2923.2955-.7067.469-1.121.469z"/><path d="m8.306 20.4993c-.10279 0-.20557-.0161-.31156-.0322-.10278-.0225-.20556-.0546-.30192-.0963-.09636-.0386-.18308-.0868-.2698-.1446-.08672-.0546-.16702-.1252-.24732-.1991-.29549-.2955-.46251-.7067-.46251-1.121 0-.1028.00642-.2152.03212-.3116.01606-.1028.04818-.2056.08672-.3019.03854-.0964.08672-.1895.15096-.2698.0546-.0868.11884-.1735.1895-.2474.0803-.0706.15739-.1349.24732-.1991.08672-.0546.17344-.1028.2698-.1413.09636-.0386.19914-.0707.30192-.0868.51712-.1028 1.06635.0643 1.4293.4305.07066.0706.14453.1605.19913.2473.05461.0803.11242.1734.15096.2698.03855.0964.07067.1991.08673.3019.02248.0964.03211.2056.03211.3116 0 .4143-.16701.8255-.46893 1.121-.29229.2955-.70662.469-1.12096.469z"/><path d="m22.9797 4.33203c-1.7313 0-2.6017.95077-3.3019 1.71203-.7195.78373-1.2077 1.26233-2.1584 1.26233s-1.4421-.4786-2.1584-1.26233c-.7002-.76447-1.5706-1.71203-3.3018-1.71203-1.7313 0-2.60168.95077-3.30188 1.71203-.71947.78373-1.20768 1.26233-2.1584 1.26233-.95073 0-1.44215-.4786-2.1584-1.26233-.7002-.76447-1.57063-1.71203-3.30185-1.71203v1.04072c.95394 0 1.44215.47859 2.15841 1.26233.70019.76447 1.57383 1.712 3.30184 1.712s2.60165-.95075 3.30184-1.712c.71944-.78374 1.20764-1.26233 2.15844-1.26233.9507 0 1.4421.47859 2.1584 1.26233.7002.76447 1.5706 1.71522 3.3018 1.71522s2.6017-.95075 3.3019-1.71522c.7194-.78374 1.2076-1.26233 2.1584-1.26233.5396 0 .9314.15739 1.3008.43683v-1.26554c-.3726-.1317-.7998-.21201-1.3008-.21201z" stroke="#000" stroke-miterlimit="10" stroke-width="2"/></g></svg>