<svg width="375" height="679" viewBox="0 0 375 679" fill="none" xmlns="http://www.w3.org/2000/svg"><path opacity=".2" d="M43.765 193.863C82.3236 126.232 119.937 136.061 193.164 126.582C250.253 119.192 340.364 80.1312 395.379 113.394C520.948 189.314 567.111 348.434 498.49 468.804C429.871 589.167 272.446 625.196 146.881 549.275C21.3127 473.355 -24.8575 314.229 43.7613 193.865L43.765 193.863Z" fill="url(#paint0_linear_221_45)"/><path opacity=".3" d="M95.0251 323.639C100.648 261.687 130.58 256.262 179.623 224.934C217.867 200.51 269.381 142.084 319.246 147.849C433.073 161.019 517.231 261.068 507.22 371.316C497.212 481.568 396.825 560.272 282.996 547.098C169.176 533.935 85.0131 433.884 95.0233 323.636L95.0251 323.639Z" fill="url(#paint1_linear_221_45)"/><path opacity=".4" d="M153.074 395.256C139.612 345.082 161.116 331.939 189.899 292.826C212.34 262.334 235.247 201.274 275.318 190.963C366.778 167.429 460.341 220.732 484.294 310.024C508.243 399.318 453.514 490.782 362.05 514.317C270.59 537.851 177.024 484.544 153.077 395.254L153.074 395.256Z" fill="url(#paint2_linear_221_45)"/><path style="mix-blend-mode:multiply" opacity=".5" d="M195.621 417.142C173.607 377.23 188.994 361.28 205.027 321.541C217.527 290.567 223.943 233.369 255.622 215.764C327.925 175.583 418.295 200.592 457.466 271.621C496.634 342.656 469.771 432.816 397.463 472.995C325.16 513.177 234.79 488.167 195.619 417.138L195.621 417.142Z" fill="url(#paint3_linear_221_45)"/><path style="mix-blend-mode:multiply" opacity=".6" d="M246.999 383.516C230.273 353.185 241.962 341.063 254.146 310.867C263.646 287.329 268.523 243.863 292.594 230.488C347.538 199.954 416.215 218.957 445.978 272.938C475.741 326.92 455.329 395.431 400.38 425.968C345.436 456.503 276.759 437.5 246.997 383.522L246.999 383.516Z" fill="url(#paint4_linear_221_45)"/><path style="mix-blend-mode:multiply" opacity=".7" d="M267.816 350.731C263.48 324.04 275.349 318.42 292.374 299.763C305.648 285.223 320.781 254.893 342.149 251.755C390.915 244.599 436.709 277.297 444.421 324.797C452.137 372.299 418.858 416.609 370.089 423.767C321.322 430.929 275.529 398.225 267.814 350.727L267.816 350.731Z" fill="url(#paint5_linear_221_45)"/><path style="mix-blend-mode:multiply" opacity=".8" d="M310.976 362.192C301.502 344.739 308.255 337.839 315.359 320.58C320.899 307.127 323.863 282.234 337.716 274.662C369.34 257.386 408.637 268.553 425.491 299.614C442.344 330.675 430.376 369.863 398.749 387.141C367.128 404.421 327.828 393.249 310.975 362.188L310.976 362.192Z" fill="url(#paint6_linear_221_45)"/><defs><linearGradient id="paint0_linear_221_45" x1="164.83" y1="108.855" x2="385.027" y2="569.713" gradientUnits="userSpaceOnUse"><stop stop-color="#00ACF2"/><stop offset="1" stop-color="#B0D866"/></linearGradient><linearGradient id="paint1_linear_221_45" x1="222.18" y1="182.254" x2="389.35" y2="532.132" gradientUnits="userSpaceOnUse"><stop stop-color="#00ACF2"/><stop offset="1" stop-color="#B0D866"/></linearGradient><linearGradient id="paint2_linear_221_45" x1="247.329" y1="203.304" x2="391.055" y2="504.113" gradientUnits="userSpaceOnUse"><stop stop-color="#00ACF2"/><stop offset="1" stop-color="#B0D866"/></linearGradient><linearGradient id="paint3_linear_221_45" x1="234.597" y1="232.439" x2="422.764" y2="455.413" gradientUnits="userSpaceOnUse"><stop stop-color="#00ACF2"/><stop offset="1" stop-color="#B0D866"/></linearGradient><linearGradient id="paint4_linear_221_45" x1="276.619" y1="243.158" x2="419.61" y2="412.598" gradientUnits="userSpaceOnUse"><stop stop-color="#00ACF2"/><stop offset="1" stop-color="#B0D866"/></linearGradient><linearGradient id="paint5_linear_221_45" x1="326.944" y1="256.622" x2="384.771" y2="420.437" gradientUnits="userSpaceOnUse"><stop stop-color="#00ACF2"/><stop offset="1" stop-color="#B0D866"/></linearGradient><linearGradient id="paint6_linear_221_45" x1="328.517" y1="281.859" x2="409.802" y2="379.59" gradientUnits="userSpaceOnUse"><stop stop-color="#00ACF2"/><stop offset="1" stop-color="#B0D866"/></linearGradient></defs></svg>