<svg fill="none" height="789" viewBox="0 0 804 789" width="804" xmlns="http://www.w3.org/2000/svg" xmlns:xlink="http://www.w3.org/1999/xlink"><linearGradient id="a"><stop offset="0" stop-color="#00acf2"/><stop offset="1" stop-color="#b0d866"/></linearGradient><linearGradient id="b" gradientUnits="userSpaceOnUse" x1="-.002253" x2="803.11" xlink:href="#a" y1="394.057" y2="394.057"/><linearGradient id="c" gradientUnits="userSpaceOnUse" x1="143.011" x2="752.725" xlink:href="#a" y1="362.684" y2="362.684"/><linearGradient id="d" gradientUnits="userSpaceOnUse" x1="189.921" x2="714.126" xlink:href="#a" y1="341.431" y2="341.431"/><linearGradient id="e" gradientUnits="userSpaceOnUse" x1="222.627" x2="666.1" xlink:href="#a" y1="378.963" y2="262.388"/><linearGradient id="f" gradientUnits="userSpaceOnUse" x1="266.321" x2="603.322" xlink:href="#a" y1="327.001" y2="238.415"/><linearGradient id="g" gradientUnits="userSpaceOnUse" x1="319.537" x2="591.105" xlink:href="#a" y1="265.197" y2="294.414"/><linearGradient id="h" gradientUnits="userSpaceOnUse" x1="356.409" x2="549.99" xlink:href="#a" y1="279.962" y2="230.563"/><path d="m38.5365 621.729c-69.8144-99.799-30.37186-146.152 5.8184-255.644 28.2147-85.361 33.8814-238.531 118.3671-293.6214 192.832-125.7394 449.878-83.6862 574.136 93.9274 124.252 177.607 68.654 423.526-124.179 549.259-192.832 125.739-449.891 83.692-574.1425-93.915z" fill="url(#b)" opacity=".2"/><path d="m257.407 636.861c-84.083-49.6-71.49-95.398-82.691-185.536-8.728-70.286-56.7-182.135-14.718-248.472 95.846-151.4253 294.84-202.617793 444.469-114.3461 149.636 88.2721 193.248 282.5841 97.396 434.0091-95.832 151.418-294.833 202.617-444.462 114.345z" fill="url(#c)" opacity=".3"/><path d="m398.361 603.303c-80.31-14.801-84.38-53.924-120.359-120.771-28.05-52.116-99.151-125.453-86.617-188.817 28.611-144.622 167.659-240.5113 310.58-214.1635 142.92 26.3545 235.586 164.9585 206.975 309.5875-28.61 144.623-167.665 240.512-310.579 214.158z" fill="url(#d)" opacity=".4"/><path d="m458.255 558.116c-71.55 4.146-83.747-28.252-129.259-77.565-35.471-38.443-112.271-85.96-115.774-142.413-7.996-128.848 88.747-239.2765 216.073-246.6452 127.332-7.3624 237.037 91.1252 245.026 219.9782 7.996 128.848-88.747 239.277-216.073 246.645z" fill="url(#e)" opacity=".5"/><path d="m445.378 463.146c-54.371 3.146-63.647-21.47-98.227-58.944-26.955-29.213-85.317-65.325-87.976-108.219-6.075-97.914 67.44-181.835 164.202-187.427 96.763-5.592 180.127 69.248 186.203 167.168 6.075 97.914-67.44 181.836-164.196 187.428z" fill="url(#f)" opacity=".6"/><path d="m412.974 411.774c-40.808-11.852-40.736-32.347-55.664-68.872-11.631-28.475-44.404-70.191-34.37-102.391 22.904-73.484 100.338-115.97 172.956-94.87 72.625 21.093 112.931 97.767 90.027 171.257-22.898 73.49-100.338 115.97-172.956 94.876z" fill="url(#g)" opacity=".7"/><path d="m458.492 358.711c-31.184 1.598-36.395-12.553-56.067-34.169-15.331-16.852-48.638-37.774-49.991-62.376-3.074-56.154 39.41-103.977 94.902-106.812 55.493-2.834 102.977 40.385 106.051 96.545 3.081 56.154-39.409 103.977-94.902 106.812z" fill="url(#h)" opacity=".8"/></svg>