<svg fill="none" height="106" viewBox="0 0 96 106" width="96" xmlns="http://www.w3.org/2000/svg"><g fill="#000" stroke="#fff"><path d="m55.2519 97.5729.0006.0004c3.8664 2.6437 8.3954 4.0457 13.0972 4.0457 12.839 0 23.2815-10.4701 23.2815-23.338v-50.562c0-12.8679-10.4425-23.33803-23.2815-23.33803-12.8391 0-23.2816 10.47013-23.2816 23.33803v20.5196c0 1.0722-.8679 1.9405-1.9344 1.9405s-1.9345-.8683-1.9345-1.9405v-20.5196c0-15.0074 12.1785-27.219 27.1505-27.219s27.1504 12.2116 27.1504 27.219v50.562c0 15.0073-12.1832 27.219-27.1504 27.219-5.484 0-10.7704-1.634-15.2782-4.72-.8834-.606-1.1113-1.8137-.5077-2.6982.6046-.8858 1.8075-1.1129 2.6881-.5089z"/><path d="m52.8719 57.7834c-1.0665 0-1.9344-.8683-1.9344-1.9405v-28.1241c0-9.6285 7.811-17.4571 17.4127-17.4571 1.0665 0 1.9344.8683 1.9344 1.9405s-.8679 1.9405-1.9344 1.9405c-7.4687 0-13.5438 6.0919-13.5438 13.5761v28.1241c0 1.0722-.8679 1.9405-1.9345 1.9405z"/><path d="m68.3505 95.7385c-1.0665 0-1.9345-.8683-1.9345-1.9405s.868-1.9405 1.9345-1.9405c7.4686 0 13.5437-6.0919 13.5437-13.5761v-28.1241c0-1.0722.868-1.9405 1.9345-1.9405s1.9344.8683 1.9344 1.9405v28.1241c0 9.6285-7.811 17.4571-17.4126 17.4571z"/><path d="m27.6505 105.501c-14.9721 0-27.1505-12.2121-27.1505-27.2195 0-15.0073 12.1833-27.219 27.1505-27.219s27.1504 12.2117 27.1504 27.219c0 15.0074-12.1832 27.2195-27.1504 27.2195zm0-50.5624c-12.8391 0-23.2816 10.4702-23.2816 23.338 0 12.8679 10.4425 23.3384 23.2816 23.3384 12.839 0 23.2815-10.4705 23.2815-23.3384 0-12.8678-10.4425-23.338-23.2815-23.338z"/><path d="m40.4707 76.3408h.6035l-.1122-.5929c-1.1878-6.2781-6.7015-11.0427-13.3111-11.0427-1.0665 0-1.9344-.8683-1.9344-1.9405s.8679-1.9405 1.9344-1.9405c9.6017 0 17.4127 7.8286 17.4127 17.4571 0 1.0722-.8679 1.9405-1.9344 1.9405h-28.2932-.6035l.1122.5929c1.1878 6.278 6.7014 11.0427 13.3062 11.0427 1.0666 0 1.9345.8683 1.9345 1.9405s-.8679 1.9405-1.9345 1.9405c-9.6016 0-17.4126-7.8286-17.4126-17.4571 0-1.0722.8679-1.9405 1.9344-1.9405z"/></g></svg>