<svg fill="none" height="151" viewBox="0 0 90 151" width="90" xmlns="http://www.w3.org/2000/svg"><g stroke="#000" stroke-linecap="round" stroke-linejoin="round" stroke-width="3"><path d="m65.9441 12.2227h-43.8832c-6.5327 0-11.8285 5.2583-11.8285 11.7447v104.0676c0 6.487 5.2958 11.745 11.8285 11.745h43.8832c6.5327 0 11.8284-5.258 11.8284-11.745v-104.0676c0-6.4864-5.2957-11.7447-11.8284-11.7447z"/><path d="m10.2324 30.8047h67.5354"/><path d="m10.2324 121.805h67.5354"/><path d="m33.9277 21.4082h13.7269"/><path d="m53.0273 21.4082h1.0468"/><path d="m43.9989 134.443c2.1416 0 3.8778-1.724 3.8778-3.85 0-2.127-1.7362-3.851-3.8778-3.851-2.1417 0-3.8778 1.724-3.8778 3.851 0 2.126 1.7361 3.85 3.8778 3.85z"/></g></svg>